<?xml version="1.0" encoding="UTF-8" standalone="no"?>
<!-- Created with Inkscape (http://www.inkscape.org/) -->

<svg
   xmlns:dc="http://purl.org/dc/elements/1.1/"
   xmlns:cc="http://creativecommons.org/ns#"
   xmlns:rdf="http://www.w3.org/1999/02/22-rdf-syntax-ns#"
   xmlns:svg="http://www.w3.org/2000/svg"
   xmlns="http://www.w3.org/2000/svg"
   xmlns:xlink="http://www.w3.org/1999/xlink"
   xmlns:sodipodi="http://sodipodi.sourceforge.net/DTD/sodipodi-0.dtd"
   xmlns:inkscape="http://www.inkscape.org/namespaces/inkscape"
   width="513.12946"
   height="373.37112"
   id="svg5883"
   version="1.1"
   inkscape:version="0.48.4 r9939"
   sodipodi:docname="t-kritisch2.svg">
  <defs
     id="defs5885">
    <marker
       inkscape:stockid="Arrow2MendC"
       orient="auto"
       refY="0"
       refX="0"
       id="Arrow2MendC"
       style="overflow:visible">
      <path
         id="path5234"
         style="fill:#231f20;fill-rule:evenodd;stroke:#231f20;stroke-width:0.625;stroke-linejoin:round"
         d="M 8.7185878,4.0337352 -2.2072895,0.01601326 8.7185884,-4.0017078 c -1.7454984,2.3720609 -1.7354408,5.6174519 -6e-7,8.035443 z"
         transform="scale(-0.6,-0.6)"
         inkscape:connector-curvature="0" />
    </marker>
    <marker
       style="overflow:visible"
       id="Arrow2MstartG"
       refX="0"
       refY="0"
       orient="auto"
       inkscape:stockid="Arrow2MstartG">
      <path
         transform="scale(0.6,0.6)"
         d="M 8.7185878,4.0337352 -2.2072895,0.01601326 8.7185884,-4.0017078 c -1.7454984,2.3720609 -1.7354408,5.6174519 -6e-7,8.035443 z"
         style="fill:#231f20;fill-rule:evenodd;stroke:#231f20;stroke-width:0.625;stroke-linejoin:round"
         id="path5231"
         inkscape:connector-curvature="0" />
    </marker>
    <marker
       style="overflow:visible"
       id="Arrow2MstartN"
       refX="0"
       refY="0"
       orient="auto"
       inkscape:stockid="Arrow2MstartN">
      <path
         transform="scale(0.6,0.6)"
         d="M 8.7185878,4.0337352 -2.2072895,0.01601326 8.7185884,-4.0017078 c -1.7454984,2.3720609 -1.7354408,5.6174519 -6e-7,8.035443 z"
         style="fill:#231f20;fill-rule:evenodd;stroke:#231f20;stroke-width:0.625;stroke-linejoin:round"
         id="path5424"
         inkscape:connector-curvature="0" />
    </marker>
    <clipPath
       id="clipPath3244">
      <use
         height="1052.3622"
         width="744.09448"
         y="0"
         x="0"
         style="overflow:visible"
         id="use3246"
         overflow="visible"
         xlink:href="#SVGID_1_" />
    </clipPath>
    <defs
       id="defs22">
      <rect
         y="0"
         x="0"
         id="SVGID_1_"
         width="463.82999"
         height="328.56" />
    </defs>
    <clipPath
       id="clipPath3234">
      <use
         height="1052.3622"
         width="744.09448"
         y="0"
         x="0"
         style="overflow:visible"
         id="use3236"
         overflow="visible"
         xlink:href="#SVGID_2_" />
    </clipPath>
    <defs
       id="defs8">
      <rect
         y="0"
         x="0"
         id="SVGID_2_"
         width="463.82999"
         height="328.56" />
    </defs>
    <clipPath
       id="clipPath3227">
      <use
         xlink:href="#SVGID_2_"
         overflow="visible"
         id="use3229"
         style="overflow:visible"
         x="0"
         y="0"
         width="744.09448"
         height="1052.3622" />
    </clipPath>
    <clipPath
       id="SVGID_3_">
      <use
         xlink:href="#SVGID_2_"
         overflow="visible"
         id="use12"
         style="overflow:visible"
         x="0"
         y="0"
         width="744.09448"
         height="1052.3622" />
    </clipPath>
    <clipPath
       id="SVGID_4_">
      <use
         xlink:href="#SVGID_1_"
         overflow="visible"
         id="use26"
         style="overflow:visible"
         x="0"
         y="0"
         width="744.09448"
         height="1052.3622" />
    </clipPath>
    <marker
       style="overflow:visible"
       id="Arrow2Mstart"
       refX="0"
       refY="0"
       orient="auto"
       inkscape:stockid="Arrow2Mstart">
      <path
         transform="scale(0.6,0.6)"
         d="M 8.7185878,4.0337352 -2.2072895,0.01601326 8.7185884,-4.0017078 c -1.7454984,2.3720609 -1.7354408,5.6174519 -6e-7,8.035443 z"
         style="fill-rule:evenodd;stroke-width:0.625;stroke-linejoin:round"
         id="path4985"
         inkscape:connector-curvature="0" />
    </marker>
    <marker
       inkscape:stockid="Arrow2Mend"
       orient="auto"
       refY="0"
       refX="0"
       id="Arrow2Mend"
       style="overflow:visible">
      <path
         id="path4790"
         style="fill-rule:evenodd;stroke-width:0.625;stroke-linejoin:round"
         d="M 8.7185878,4.0337352 -2.2072895,0.01601326 8.7185884,-4.0017078 c -1.7454984,2.3720609 -1.7354408,5.6174519 -6e-7,8.035443 z"
         transform="scale(-0.6,-0.6)"
         inkscape:connector-curvature="0" />
    </marker>
  </defs>
  <sodipodi:namedview
     id="base"
     pagecolor="#ffffff"
     bordercolor="#666666"
     borderopacity="1.0"
     inkscape:pageopacity="0.0"
     inkscape:pageshadow="2"
     inkscape:zoom="0.98994949"
     inkscape:cx="162.49339"
     inkscape:cy="121.4647"
     inkscape:document-units="px"
     inkscape:current-layer="layer1"
     showgrid="false"
     fit-margin-top="3"
     fit-margin-right="3"
     fit-margin-left="3"
     fit-margin-bottom="3"
     inkscape:window-width="1680"
     inkscape:window-height="997"
     inkscape:window-x="-8"
     inkscape:window-y="-8"
     inkscape:window-maximized="1" />
  <metadata
     id="metadata5888">
    <rdf:RDF>
      <cc:Work
         rdf:about="">
        <dc:format>image/svg+xml</dc:format>
        <dc:type
           rdf:resource="http://purl.org/dc/dcmitype/StillImage" />
        <dc:title></dc:title>
      </cc:Work>
    </rdf:RDF>
  </metadata>
  <g
     inkscape:label="Layer 1"
     inkscape:groupmode="layer"
     id="layer1"
     transform="translate(918.86424,54.914893)">
    <g
       id="g6000"
       transform="translate(-1267.9607,-58.44075)">
      <g
         transform="translate(234.35539,-12.121831)"
         id="g4021">
        <g
           transform="translate(0,-280)"
           id="g3887">
          <path
             style="fill:#0196de;fill-opacity:0.3244681;stroke:none"
             d="m 602.85715,629.50504 -128.57144,0 0,-67.14286 31.60415,30.71429 47.40623,23.57143 49.56106,5.71428 z"
             id="path4719"
             inkscape:connector-curvature="0" />
          <path
             inkscape:connector-curvature="0"
             id="path4717"
             d="m 144.41399,629.50504 128.57144,0 0,-67.14286 -31.60415,30.71429 -47.40623,23.57143 -49.56106,5.71428 z"
             style="fill:#0196de;fill-opacity:0.3244681;stroke:none" />
          <path
             transform="translate(143.08501,339.7156)"
             style="fill:none;stroke:#0196de;stroke-width:6;stroke-miterlimit:4;stroke-opacity:1;stroke-dasharray:none"
             inkscape:connector-curvature="0"
             id="path14"
             d="M 463.41,284.13 C 280.93,277.54 294.41,65.39 231.79,65.39 169.168,65.39 182.649,277.55 0.17,284.13"
             clip-path="url(#SVGID_3_)" />
          <path
             inkscape:connector-curvature="0"
             id="path4753"
             d="m 272.02375,553.96418 0,-254.59303"
             style="fill:none;stroke:#231f20;stroke-width:1.44692361;stroke-linecap:butt;stroke-linejoin:miter;stroke-miterlimit:4;stroke-opacity:1;stroke-dasharray:8.6815412, 8.6815412;stroke-dashoffset:0" />
          <path
             style="fill:none;stroke:#231f20;stroke-width:1.44692361;stroke-linecap:butt;stroke-linejoin:miter;stroke-miterlimit:4;stroke-opacity:1;stroke-dasharray:8.6815412, 8.6815412;stroke-dashoffset:0"
             d="m 475.24739,553.96418 0,-254.59303"
             id="path4755"
             inkscape:connector-curvature="0" />
          <path
             style="fill:none;stroke:#0196de;stroke-width:2;stroke-linecap:butt;stroke-linejoin:miter;stroke-miterlimit:4;stroke-opacity:1;stroke-dasharray:none;stroke-dashoffset:0"
             d="m 272.02375,629.25857 0,-64.29118"
             id="path4771"
             inkscape:connector-curvature="0" />
          <g
             transform="translate(3.2861329e-6,0)"
             id="g4017">
            <path
               style="fill:none;stroke:#231f20;stroke-width:1.70000005;stroke-linecap:butt;stroke-linejoin:miter;stroke-miterlimit:4;stroke-opacity:1;stroke-dasharray:none"
               d="m 375,616.00665 0,12.6269"
               id="path4159"
               inkscape:connector-curvature="0" />
            <path
               style="fill:none;stroke:#231f20;stroke-width:1.70000005;stroke-linecap:butt;stroke-linejoin:miter;stroke-miterlimit:4;stroke-opacity:1;stroke-dasharray:none"
               d="m 140.64461,628.63355 468.71078,0"
               id="path3378"
               inkscape:connector-curvature="0" />
          </g>
          <path
             inkscape:connector-curvature="0"
             id="path4773"
             d="m 475.28571,629.19 0,-68.69972"
             style="fill:none;stroke:#0196de;stroke-width:2;stroke-linecap:butt;stroke-linejoin:miter;stroke-miterlimit:4;stroke-opacity:1;stroke-dasharray:none;stroke-dashoffset:0" />
          <path
             inkscape:connector-curvature="0"
             id="path4775"
             d="M 231.42857,611.6479 178.57142,553.79076"
             style="fill:none;stroke:#231f20;stroke-width:3;stroke-linecap:butt;stroke-linejoin:miter;stroke-miterlimit:4;stroke-opacity:1;stroke-dasharray:none;marker-start:url(#Arrow2MstartN);marker-end:none" />
          <path
             style="fill:none;stroke:#231f20;stroke-width:3;stroke-linecap:butt;stroke-linejoin:miter;stroke-miterlimit:4;stroke-opacity:1;stroke-dasharray:none;marker-start:url(#Arrow2MstartN);marker-end:none"
             d="m 511.0493,611.6479 52.85715,-57.85714"
             id="path5508"
             inkscape:connector-curvature="0" />
          <g
             style="font-size:32px;font-style:normal;font-variant:normal;font-weight:normal;font-stretch:normal;text-align:center;line-height:110.00000238%;letter-spacing:0px;word-spacing:0px;writing-mode:lr-tb;text-anchor:middle;fill:#000000;fill-opacity:1;stroke:none;font-family:Charis SIL;-inkscape-font-specification:Charis SIL"
             id="text5510">
            <path
               d="m 186.64732,313.82202 c -0.19794,0.0208 -0.362,0.0807 -0.49218,0.17969 -0.13023,0.099 -0.22138,0.25262 -0.27344,0.46094 l -3.32813,17.21875 c -0.0313,0.15625 -0.005,0.29166 0.0781,0.40625 0.0833,0.11458 0.27081,0.18229 0.5625,0.20312 l 1.79687,0.15625 0,1.34375 -8.35937,0 0,-1.34375 1.92187,-0.15625 c 0.18749,-0.0208 0.35416,-0.0807 0.5,-0.17969 0.14582,-0.099 0.23436,-0.24218 0.26563,-0.42968 l 1.59375,-8.32813 -9.98438,0 -1.59375,8.32813 c -0.0312,0.15625 -0.005,0.29166 0.0781,0.40625 0.0833,0.11458 0.26041,0.18229 0.53125,0.20312 l 1.85937,0.15625 0,1.34375 -8.32812,0 0,-1.34375 1.82812,-0.15625 c 0.4375,-0.0312 0.70313,-0.23437 0.79688,-0.60937 l 3.32812,-17.21875 c 0.0312,-0.17707 0.005,-0.3229 -0.0781,-0.4375 -0.0833,-0.11457 -0.27084,-0.18228 -0.5625,-0.20313 l -1.78125,-0.15625 0,-1.34375 8.3125,0 0,1.34375 -1.89063,0.15625 c -0.18751,0.0208 -0.35417,0.0807 -0.5,0.17969 -0.14584,0.099 -0.23438,0.25262 -0.26562,0.46094 l -1.40625,7.29687 9.98437,0 1.40625,-7.29687 c 0.0312,-0.17707 0.005,-0.3229 -0.0781,-0.4375 -0.0833,-0.11457 -0.27085,-0.18228 -0.5625,-0.20313 l -1.82813,-0.15625 0,-1.34375 8.32813,0 0,1.34375 z"
               style="font-style:oblique;-inkscape-font-specification:Charis SIL Oblique"
               id="path10862" />
            <path
               d="m 195.8192,334.2439 c -1e-5,-0.71875 -0.0443,-1.42188 -0.13281,-2.10938 -0.0885,-0.6875 -0.2396,-1.29947 -0.45313,-1.83594 -0.21355,-0.53645 -0.50001,-0.96874 -0.85937,-1.29687 -0.35939,-0.32812 -0.81511,-0.49218 -1.36719,-0.49219 -0.55209,10e-6 -1.01042,0.16407 -1.375,0.49219 -0.36459,0.32813 -0.65626,0.76042 -0.875,1.29687 -0.21875,0.53647 -0.3724,1.14844 -0.46094,1.83594 -0.0885,0.6875 -0.13281,1.39063 -0.13281,2.10938 0,0.71875 0.0443,1.41927 0.13281,2.10156 0.0885,0.68229 0.24219,1.28906 0.46094,1.82031 0.21874,0.53125 0.51041,0.95833 0.875,1.28125 0.36458,0.32291 0.82291,0.48437 1.375,0.48438 0.55208,-10e-6 1.0078,-0.16147 1.36719,-0.48438 0.35936,-0.32292 0.64582,-0.75 0.85937,-1.28125 0.21353,-0.53125 0.36458,-1.13802 0.45313,-1.82031 0.0885,-0.68229 0.1328,-1.38281 0.13281,-2.10156 z m 2.20312,0 c -1e-5,0.91666 -0.10157,1.77864 -0.30468,2.58593 -0.20314,0.80729 -0.51303,1.51302 -0.92969,2.11719 -0.41668,0.60416 -0.94011,1.08072 -1.57031,1.42969 -0.63022,0.34895 -1.3672,0.52343 -2.21094,0.52344 -0.84376,-10e-6 -1.58073,-0.17449 -2.21094,-0.52344 -0.63021,-0.34897 -1.15365,-0.82553 -1.57031,-1.42969 -0.41667,-0.60417 -0.72917,-1.3099 -0.9375,-2.11719 -0.20834,-0.80729 -0.3125,-1.66927 -0.3125,-2.58593 0,-0.91667 0.10416,-1.78125 0.3125,-2.59375 0.20833,-0.8125 0.52083,-1.52344 0.9375,-2.13282 0.41666,-0.60937 0.9401,-1.08853 1.57031,-1.4375 0.63021,-0.34895 1.36718,-0.52343 2.21094,-0.52343 0.84374,0 1.58072,0.17448 2.21094,0.52343 0.6302,0.34897 1.15363,0.82813 1.57031,1.4375 0.41666,0.60938 0.72655,1.32032 0.92969,2.13282 0.20311,0.8125 0.30467,1.67708 0.30468,2.59375 z"
               style=""
               id="path10864" />
            <path
               d="m 127.24107,360.4439 c -1.43751,0.36459 -2.57813,0.72396 -3.42187,1.07812 -0.84376,0.35418 -1.48178,0.71095 -1.91406,1.07031 -0.4323,0.35939 -0.70834,0.72397 -0.82813,1.09375 -0.11979,0.3698 -0.17969,0.75261 -0.17969,1.14844 0,0.33334 0.0547,0.65886 0.16407,0.97656 0.10937,0.31772 0.26562,0.60157 0.46875,0.85157 0.20312,0.25 0.45312,0.45052 0.75,0.60156 0.29687,0.15104 0.63801,0.22656 1.02343,0.22656 0.42708,0 0.87239,-0.0781 1.33594,-0.23437 0.46353,-0.15625 0.88801,-0.32813 1.27344,-0.51563 0.44791,-0.21875 0.89061,-0.47395 1.32812,-0.76562 z m 0.42188,8.54687 -0.42188,-1.89062 c -0.56251,0.42708 -1.14063,0.80729 -1.73437,1.14062 -0.26043,0.14584 -0.53647,0.28646 -0.82813,0.42188 -0.29167,0.13541 -0.59115,0.25781 -0.89843,0.36718 -0.3073,0.10938 -0.6198,0.19532 -0.9375,0.25782 -0.31772,0.0625 -0.63282,0.0937 -0.94532,0.0937 -0.58333,0 -1.1276,-0.099 -1.63281,-0.29688 -0.50521,-0.19791 -0.94531,-0.48437 -1.32031,-0.85937 -0.375,-0.375 -0.66927,-0.82813 -0.88281,-1.35938 -0.21355,-0.53125 -0.32032,-1.13541 -0.32032,-1.8125 0,-0.39583 0.0391,-0.77083 0.11719,-1.125 0.0781,-0.35416 0.23698,-0.69791 0.47656,-1.03125 0.23959,-0.33332 0.57552,-0.65364 1.00782,-0.96094 0.43228,-0.30728 0.99999,-0.61197 1.70312,-0.91406 0.70312,-0.30207 1.5625,-0.60155 2.57813,-0.89844 1.01561,-0.29686 2.22134,-0.59634 3.61718,-0.89843 l 0,-1.375 c -10e-6,-1.07291 -0.23959,-1.86718 -0.71875,-2.38282 -0.47917,-0.51561 -1.23438,-0.77342 -2.26562,-0.77343 -0.56251,1e-5 -1.04167,0.0521 -1.4375,0.15625 -0.39584,0.10418 -0.67188,0.18751 -0.82813,0.25 l 0,2.78125 -2.32812,0 c -0.14584,1e-5 -0.28907,-0.0104 -0.42969,-0.0312 -0.14063,-0.0208 -0.26823,-0.0651 -0.38281,-0.13282 -0.11459,-0.0677 -0.20573,-0.16144 -0.27344,-0.28125 -0.0677,-0.11978 -0.10156,-0.27863 -0.10156,-0.47656 0,-0.65624 0.19791,-1.22134 0.59375,-1.69531 0.39583,-0.47394 0.91145,-0.86717 1.54687,-1.17969 0.63542,-0.31248 1.34896,-0.54165 2.14063,-0.6875 0.79166,-0.14582 1.58332,-0.21873 2.375,-0.21875 0.98957,2e-5 1.80988,0.11981 2.46094,0.35938 0.65103,0.2396 1.16665,0.57293 1.54687,1 0.3802,0.42709 0.64843,0.9323 0.80469,1.51562 0.15624,0.58335 0.23436,1.22397 0.23437,1.92188 l 0,8.96875 c -1e-5,0.19792 0.0651,0.35937 0.19532,0.48437 0.13019,0.125 0.28904,0.19792 0.47656,0.21875 l 1.54687,0.0937 0,1.25 z"
               style=""
               id="path10866" />
            <path
               d="m 149.6317,360.53765 c -2e-5,1.20834 -0.1771,2.32552 -0.53125,3.35156 -0.35418,1.02605 -0.90366,1.91927 -1.64844,2.67969 -0.7448,0.76042 -1.69793,1.35416 -2.85937,1.78125 -1.16147,0.42708 -2.54428,0.64062 -4.14844,0.64062 l -4.60938,0 0,-21.28125 -2.42187,0 0,-1.0625 4.125,-1.23437 1.28125,0 0,8.95312 c 0.18749,-0.0833 0.43228,-0.19269 0.73437,-0.32812 0.30208,-0.1354 0.64843,-0.26561 1.03907,-0.39063 0.39061,-0.12498 0.80988,-0.23436 1.25781,-0.32812 0.44791,-0.0937 0.90624,-0.14061 1.375,-0.14063 1.05207,2e-5 1.97655,0.19793 2.77344,0.59375 0.79686,0.39585 1.46613,0.93231 2.00781,1.60938 0.54165,0.67709 0.9479,1.46095 1.21875,2.35156 0.27082,0.89064 0.40623,1.82553 0.40625,2.80469 z m -3.26563,0.64062 c -1e-5,-2.0104 -0.4297,-3.53124 -1.28906,-4.5625 -0.85939,-1.03123 -2.0599,-1.54686 -3.60156,-1.54687 -0.17709,1e-5 -0.38543,0.0156 -0.625,0.0469 -0.23959,0.0313 -0.48178,0.0729 -0.72656,0.125 -0.2448,0.0521 -0.48439,0.10939 -0.71875,0.17188 -0.23439,0.0625 -0.4297,0.1198 -0.58594,0.17187 l 0,11.875 c 0.17708,0.0104 0.35937,0.0156 0.54687,0.0156 0.15625,0.0104 0.32291,0.0156 0.5,0.0156 l 0.51563,0 c 0.94791,0 1.79166,-0.10937 2.53125,-0.32812 0.73957,-0.21875 1.36457,-0.57813 1.875,-1.07813 0.5104,-0.49999 0.90103,-1.15104 1.17187,-1.95312 0.27082,-0.80208 0.40624,-1.78645 0.40625,-2.95313 z"
               style=""
               id="path10868" />
            <path
               d="m 151.5692,368.99077 0,-1.25 1.70312,-0.0937 c 0.14583,0 0.29948,-0.0755 0.46094,-0.22656 0.16146,-0.15104 0.24219,-0.29948 0.24219,-0.44531 l 0,-19.26563 -2.4375,0 0,-1.0625 4.09375,-1.23437 1.3125,0 0,21.5625 c -1e-5,0.14583 0.0755,0.29427 0.22656,0.44531 0.15104,0.15104 0.29947,0.22656 0.44531,0.22656 l 1.73438,0.0937 0,1.25 z"
               style=""
               id="path10870" />
            <path
               d="m 174.80357,367.39702 c -0.44793,0.28125 -0.91407,0.54167 -1.39843,0.78125 -0.48439,0.23959 -0.98439,0.44792 -1.5,0.625 -0.51564,0.17709 -1.03908,0.31771 -1.57032,0.42188 -0.53126,0.10416 -1.06771,0.15625 -1.60937,0.15625 -0.96876,0 -1.90105,-0.16407 -2.79688,-0.49219 -0.89583,-0.32812 -1.6849,-0.82031 -2.36718,-1.47656 -0.6823,-0.65625 -1.22917,-1.48177 -1.64063,-2.47657 -0.41146,-0.99478 -0.61719,-2.15884 -0.61719,-3.49218 0,-1.24999 0.1875,-2.38281 0.5625,-3.39844 0.375,-1.01561 0.89583,-1.8854 1.5625,-2.60938 0.66667,-0.72394 1.45833,-1.28123 2.375,-1.67187 0.91666,-0.39061 1.92187,-0.58592 3.01563,-0.58594 0.98957,2e-5 1.85936,0.16408 2.60937,0.49219 0.74999,0.32814 1.37499,0.78126 1.875,1.35937 0.49999,0.57814 0.87499,1.27085 1.125,2.07813 0.24999,0.8073 0.37499,1.68491 0.375,2.63281 l 0,0.42188 c -1e-5,0.16667 -0.0104,0.32292 -0.0312,0.46875 l -10.375,0 c 0,0.8125 0.0859,1.625 0.25782,2.4375 0.17187,0.8125 0.46093,1.54167 0.86718,2.1875 0.40625,0.64583 0.95312,1.16927 1.64063,1.57031 0.68749,0.40104 1.54687,0.60156 2.57812,0.60156 0.45833,0 0.91145,-0.0599 1.35938,-0.17969 0.4479,-0.11979 0.88801,-0.27343 1.32031,-0.46093 0.43228,-0.1875 0.84634,-0.39844 1.24219,-0.63282 0.39582,-0.23437 0.77603,-0.47135 1.14062,-0.71093 z m -3.20312,-8.90625 c -1e-5,-0.53124 -0.0625,-1.02342 -0.1875,-1.47656 -0.12501,-0.45311 -0.31512,-0.84634 -0.57031,-1.17969 -0.25522,-0.33332 -0.57814,-0.59634 -0.96875,-0.78906 -0.39064,-0.19269 -0.85158,-0.28905 -1.38282,-0.28906 -0.53125,1e-5 -1.02605,0.10157 -1.48437,0.30468 -0.45834,0.20314 -0.86199,0.49741 -1.21094,0.88282 -0.34896,0.38543 -0.63021,0.85157 -0.84375,1.39843 -0.21355,0.54689 -0.34115,1.16408 -0.38281,1.85157 l 7.03125,0 z"
               style=""
               id="path10872" />
            <path
               d="m 186.39732,368.99077 0,-1.25 1.3125,-0.0937 c 0.18749,-0.0208 0.35155,-0.0937 0.49219,-0.21875 0.14061,-0.125 0.21093,-0.28645 0.21094,-0.48437 l 0,-8.25 c -1e-5,-0.45833 -0.0495,-0.8802 -0.14844,-1.26563 -0.099,-0.3854 -0.27084,-0.71874 -0.51562,-1 -0.24481,-0.28123 -0.57033,-0.50259 -0.97657,-0.66406 -0.40626,-0.16145 -0.91667,-0.24217 -1.53125,-0.24219 -0.28126,2e-5 -0.57813,0.0235 -0.89062,0.0703 -0.31251,0.0469 -0.62241,0.112 -0.92969,0.19532 -0.3073,0.0833 -0.60417,0.1823 -0.89062,0.29687 -0.28647,0.1146 -0.54428,0.23439 -0.77344,0.35938 l 0,10.5 c -1e-5,0.19792 0.0573,0.35937 0.17187,0.48437 0.11458,0.125 0.27083,0.19792 0.46875,0.21875 l 1.375,0.0937 0,1.25 -7.20312,0 0,-1.25 1.53125,-0.0937 c 0.19791,-0.0208 0.35937,-0.0937 0.48437,-0.21875 0.125,-0.125 0.1875,-0.28645 0.1875,-0.48437 l 0,-19.23438 -2.39062,0 0,-1.0625 4.09375,-1.23437 1.28125,0 0,9.75 c 0.29166,-0.17707 0.65103,-0.3802 1.07812,-0.60938 0.42708,-0.22915 0.88281,-0.4453 1.36719,-0.64844 0.48437,-0.2031 0.97395,-0.37498 1.46875,-0.51562 0.49478,-0.14061 0.95051,-0.21092 1.36719,-0.21094 0.61457,2e-5 1.18488,0.099 1.71094,0.29688 0.52602,0.19793 0.98436,0.4948 1.375,0.89062 0.39061,0.39585 0.6979,0.89845 0.92187,1.50781 0.22394,0.60939 0.33592,1.32554 0.33594,2.14844 l 0,8.92188 c -2e-5,0.19792 0.0703,0.35937 0.21094,0.48437 0.14061,0.125 0.30467,0.19792 0.49218,0.21875 l 1.4375,0.0937 0,1.25 z"
               style=""
               id="path10874" />
            <path
               d="m 204.70982,368.99077 0,-1.25 1.34375,-0.0937 c 0.18749,-0.0208 0.34635,-0.0937 0.47657,-0.21875 0.13019,-0.125 0.1953,-0.28645 0.19531,-0.48437 l 0,-8.32813 c -1e-5,-1.0104 -0.23439,-1.77863 -0.70313,-2.30469 -0.46876,-0.52602 -1.26042,-0.78904 -2.375,-0.78906 -0.61459,2e-5 -1.21875,0.086 -1.8125,0.25781 -0.59375,0.17189 -1.16146,0.39325 -1.70312,0.66407 l 0,10.5 c -1e-5,0.19792 0.0625,0.35937 0.1875,0.48437 0.12499,0.125 0.28645,0.19792 0.48437,0.21875 l 1.34375,0.0937 0,1.25 -7.23437,0 0,-1.25 1.5625,-0.0937 c 0.19791,-0.0208 0.35937,-0.0937 0.48437,-0.21875 0.125,-0.125 0.1875,-0.28645 0.1875,-0.48437 l 0,-11.10938 -2.23437,0 0,-1.04687 3.90625,-1.21875 1.3125,0 0,1.59375 c 0.44791,-0.24999 0.90364,-0.49478 1.36719,-0.73438 0.46353,-0.23957 0.92447,-0.45311 1.38281,-0.64062 0.45832,-0.18749 0.90103,-0.33592 1.32812,-0.44532 0.42708,-0.10935 0.82812,-0.16404 1.20313,-0.16406 1.39582,2e-5 2.45832,0.43231 3.1875,1.29688 0.72915,0.86459 1.09373,2.07813 1.09375,3.64062 l 0,8.82813 c -2e-5,0.19792 0.0651,0.35937 0.19531,0.48437 0.13019,0.125 0.28905,0.19792 0.47656,0.21875 l 1.40625,0.0937 0,1.25 z"
               style=""
               id="path10876" />
            <path
               d="m 226.99107,367.39702 c -0.44793,0.28125 -0.91407,0.54167 -1.39843,0.78125 -0.48439,0.23959 -0.98439,0.44792 -1.5,0.625 -0.51564,0.17709 -1.03908,0.31771 -1.57032,0.42188 -0.53126,0.10416 -1.06771,0.15625 -1.60937,0.15625 -0.96876,0 -1.90105,-0.16407 -2.79688,-0.49219 -0.89583,-0.32812 -1.6849,-0.82031 -2.36718,-1.47656 -0.6823,-0.65625 -1.22917,-1.48177 -1.64063,-2.47657 -0.41146,-0.99478 -0.61719,-2.15884 -0.61719,-3.49218 0,-1.24999 0.1875,-2.38281 0.5625,-3.39844 0.375,-1.01561 0.89583,-1.8854 1.5625,-2.60938 0.66667,-0.72394 1.45833,-1.28123 2.375,-1.67187 0.91666,-0.39061 1.92187,-0.58592 3.01563,-0.58594 0.98957,2e-5 1.85936,0.16408 2.60937,0.49219 0.74999,0.32814 1.37499,0.78126 1.875,1.35937 0.49999,0.57814 0.87499,1.27085 1.125,2.07813 0.24999,0.8073 0.37499,1.68491 0.375,2.63281 l 0,0.42188 c -1e-5,0.16667 -0.0104,0.32292 -0.0312,0.46875 l -10.375,0 c 0,0.8125 0.0859,1.625 0.25782,2.4375 0.17187,0.8125 0.46093,1.54167 0.86718,2.1875 0.40625,0.64583 0.95312,1.16927 1.64063,1.57031 0.68749,0.40104 1.54687,0.60156 2.57812,0.60156 0.45833,0 0.91145,-0.0599 1.35938,-0.17969 0.4479,-0.11979 0.88801,-0.27343 1.32031,-0.46093 0.43228,-0.1875 0.84634,-0.39844 1.24219,-0.63282 0.39582,-0.23437 0.77603,-0.47135 1.14062,-0.71093 z m -3.20312,-8.90625 c -1e-5,-0.53124 -0.0625,-1.02342 -0.1875,-1.47656 -0.12501,-0.45311 -0.31512,-0.84634 -0.57031,-1.17969 -0.25522,-0.33332 -0.57814,-0.59634 -0.96875,-0.78906 -0.39064,-0.19269 -0.85158,-0.28905 -1.38282,-0.28906 -0.53125,1e-5 -1.02605,0.10157 -1.48437,0.30468 -0.45834,0.20314 -0.86199,0.49741 -1.21094,0.88282 -0.34896,0.38543 -0.63021,0.85157 -0.84375,1.39843 -0.21355,0.54689 -0.34115,1.16408 -0.38281,1.85157 l 7.03125,0 z"
               style=""
               id="path10878" />
            <path
               d="m 238.52232,368.99077 0,-1.25 1.34375,-0.0937 c 0.18749,-0.0208 0.34635,-0.0937 0.47657,-0.21875 0.13019,-0.125 0.1953,-0.28645 0.19531,-0.48437 l 0,-8.32813 c -1e-5,-1.0104 -0.23439,-1.77863 -0.70313,-2.30469 -0.46876,-0.52602 -1.26042,-0.78904 -2.375,-0.78906 -0.61459,2e-5 -1.21875,0.086 -1.8125,0.25781 -0.59375,0.17189 -1.16146,0.39325 -1.70312,0.66407 l 0,10.5 c -1e-5,0.19792 0.0625,0.35937 0.1875,0.48437 0.12499,0.125 0.28645,0.19792 0.48437,0.21875 l 1.34375,0.0937 0,1.25 -7.23437,0 0,-1.25 1.5625,-0.0937 c 0.19791,-0.0208 0.35937,-0.0937 0.48437,-0.21875 0.125,-0.125 0.1875,-0.28645 0.1875,-0.48437 l 0,-11.10938 -2.23437,0 0,-1.04687 3.90625,-1.21875 1.3125,0 0,1.59375 c 0.44791,-0.24999 0.90364,-0.49478 1.36719,-0.73438 0.46353,-0.23957 0.92447,-0.45311 1.38281,-0.64062 0.45832,-0.18749 0.90103,-0.33592 1.32812,-0.44532 0.42708,-0.10935 0.82812,-0.16404 1.20313,-0.16406 1.39582,2e-5 2.45832,0.43231 3.1875,1.29688 0.72915,0.86459 1.09373,2.07813 1.09375,3.64062 l 0,8.82813 c -2e-5,0.19792 0.0651,0.35937 0.19531,0.48437 0.13019,0.125 0.28905,0.19792 0.47656,0.21875 l 1.40625,0.0937 0,1.25 z"
               style=""
               id="path10880" />
          </g>
          <g
             style="font-size:32px;font-style:normal;font-variant:normal;font-weight:normal;font-stretch:normal;text-align:center;line-height:110.00000238%;letter-spacing:0px;word-spacing:0px;writing-mode:lr-tb;text-anchor:middle;fill:#000000;fill-opacity:1;stroke:none;font-family:Charis SIL;-inkscape-font-specification:Charis SIL"
             id="text3044">
            <path
               d="m 339.29687,313.82202 c -0.19793,0.0208 -0.362,0.0807 -0.49218,0.17969 -0.13023,0.099 -0.22138,0.25262 -0.27344,0.46094 l -3.32813,17.21875 c -0.0313,0.15625 -0.005,0.29166 0.0781,0.40625 0.0833,0.11458 0.27081,0.18229 0.5625,0.20312 l 1.79687,0.15625 0,1.34375 -8.35937,0 0,-1.34375 1.92187,-0.15625 c 0.18749,-0.0208 0.35416,-0.0807 0.5,-0.17969 0.14582,-0.099 0.23436,-0.24218 0.26563,-0.42968 l 1.59375,-8.32813 -9.98438,0 -1.59375,8.32813 c -0.0312,0.15625 -0.005,0.29166 0.0781,0.40625 0.0833,0.11458 0.26041,0.18229 0.53125,0.20312 l 1.85937,0.15625 0,1.34375 -8.32812,0 0,-1.34375 1.82812,-0.15625 c 0.4375,-0.0312 0.70313,-0.23437 0.79688,-0.60937 l 3.32812,-17.21875 c 0.0312,-0.17707 0.005,-0.3229 -0.0781,-0.4375 -0.0833,-0.11457 -0.27084,-0.18228 -0.5625,-0.20313 l -1.78125,-0.15625 0,-1.34375 8.3125,0 0,1.34375 -1.89063,0.15625 c -0.1875,0.0208 -0.35417,0.0807 -0.5,0.17969 -0.14584,0.099 -0.23438,0.25262 -0.26562,0.46094 l -1.40625,7.29687 9.98437,0 1.40625,-7.29687 c 0.0312,-0.17707 0.005,-0.3229 -0.0781,-0.4375 -0.0833,-0.11457 -0.27085,-0.18228 -0.5625,-0.20313 l -1.82813,-0.15625 0,-1.34375 8.32813,0 0,1.34375 z"
               style="font-style:oblique;-inkscape-font-specification:Charis SIL Oblique"
               id="path10883" />
            <path
               d="m 348.46875,334.2439 c -10e-6,-0.71875 -0.0443,-1.42188 -0.13281,-2.10938 -0.0885,-0.6875 -0.23959,-1.29947 -0.45313,-1.83594 -0.21355,-0.53645 -0.50001,-0.96874 -0.85937,-1.29687 -0.35938,-0.32812 -0.81511,-0.49218 -1.36719,-0.49219 -0.55209,10e-6 -1.01042,0.16407 -1.375,0.49219 -0.36459,0.32813 -0.65625,0.76042 -0.875,1.29687 -0.21875,0.53647 -0.3724,1.14844 -0.46094,1.83594 -0.0885,0.6875 -0.13281,1.39063 -0.13281,2.10938 0,0.71875 0.0443,1.41927 0.13281,2.10156 0.0885,0.68229 0.24219,1.28906 0.46094,1.82031 0.21875,0.53125 0.51041,0.95833 0.875,1.28125 0.36458,0.32291 0.82291,0.48437 1.375,0.48438 0.55208,-10e-6 1.00781,-0.16147 1.36719,-0.48438 0.35936,-0.32292 0.64582,-0.75 0.85937,-1.28125 0.21354,-0.53125 0.36458,-1.13802 0.45313,-1.82031 0.0885,-0.68229 0.1328,-1.38281 0.13281,-2.10156 z m 2.20312,0 c -1e-5,0.91666 -0.10157,1.77864 -0.30468,2.58593 -0.20314,0.80729 -0.51303,1.51302 -0.92969,2.11719 -0.41668,0.60416 -0.94011,1.08072 -1.57031,1.42969 -0.63022,0.34895 -1.3672,0.52343 -2.21094,0.52344 -0.84376,-10e-6 -1.58073,-0.17449 -2.21094,-0.52344 -0.63021,-0.34897 -1.15365,-0.82553 -1.57031,-1.42969 -0.41667,-0.60417 -0.72917,-1.3099 -0.9375,-2.11719 -0.20833,-0.80729 -0.3125,-1.66927 -0.3125,-2.58593 0,-0.91667 0.10417,-1.78125 0.3125,-2.59375 0.20833,-0.8125 0.52083,-1.52344 0.9375,-2.13282 0.41666,-0.60937 0.9401,-1.08853 1.57031,-1.4375 0.63021,-0.34895 1.36718,-0.52343 2.21094,-0.52343 0.84374,0 1.58072,0.17448 2.21094,0.52343 0.6302,0.34897 1.15363,0.82813 1.57031,1.4375 0.41666,0.60938 0.72655,1.32032 0.92969,2.13282 0.20311,0.8125 0.30467,1.67708 0.30468,2.59375 z"
               style=""
               id="path10885" />
            <path
               d="m 371.35937,333.79077 0,-1.25 1.34375,-0.0937 c 0.18749,-0.0208 0.34635,-0.0937 0.47657,-0.21875 0.13019,-0.125 0.1953,-0.28645 0.19531,-0.48437 l 0,-8.32813 c -10e-6,-1.0104 -0.23439,-1.77863 -0.70313,-2.30469 -0.46876,-0.52602 -1.26042,-0.78905 -2.375,-0.78906 -0.61459,10e-6 -1.21875,0.0859 -1.8125,0.25781 -0.59375,0.17189 -1.16146,0.39325 -1.70312,0.66407 l 0,10.5 c -10e-6,0.19792 0.0625,0.35937 0.1875,0.48437 0.12499,0.125 0.28645,0.19792 0.48437,0.21875 l 1.34375,0.0937 0,1.25 -7.23437,0 0,-1.25 1.5625,-0.0937 c 0.19791,-0.0208 0.35937,-0.0937 0.48437,-0.21875 0.125,-0.125 0.1875,-0.28645 0.1875,-0.48437 l 0,-11.10938 -2.23437,0 0,-1.04687 3.90625,-1.21875 1.3125,0 0,1.59375 c 0.44791,-0.24999 0.90364,-0.49478 1.36719,-0.73438 0.46353,-0.23957 0.92447,-0.45311 1.38281,-0.64062 0.45832,-0.18749 0.90103,-0.33593 1.32812,-0.44532 0.42708,-0.10936 0.82812,-0.16404 1.20313,-0.16406 1.39582,2e-5 2.45832,0.43231 3.1875,1.29688 0.72915,0.86459 1.09373,2.07813 1.09375,3.64062 l 0,8.82813 c -2e-5,0.19792 0.0651,0.35937 0.19531,0.48437 0.1302,0.125 0.28905,0.19792 0.47656,0.21875 l 1.40625,0.0937 0,1.25 z"
               style=""
               id="path10887" />
            <path
               d="m 380.14062,333.79077 0,-1.25 1.5625,-0.0937 c 0.19792,-0.0208 0.35938,-0.0937 0.48438,-0.21875 0.125,-0.125 0.1875,-0.28645 0.1875,-0.48437 l 0,-11.42188 -2.20313,0 0,-1.125 3.90625,-1.21875 1.26563,0 0,13.76563 c -10e-6,0.19792 0.0651,0.35937 0.19531,0.48437 0.1302,0.125 0.28906,0.19792 0.47656,0.21875 l 1.64063,0.0937 0,1.25 z m 5.875,-20.70312 c 0,0.27085 -0.0495,0.52866 -0.14843,0.77343 -0.099,0.24482 -0.23699,0.45575 -0.41407,0.63282 -0.17708,0.1771 -0.38281,0.31772 -0.61718,0.42187 -0.23438,0.10419 -0.48699,0.15627 -0.75782,0.15625 -0.27083,2e-5 -0.52865,-0.0521 -0.77343,-0.15625 -0.2448,-0.10415 -0.45574,-0.24477 -0.63282,-0.42187 -0.17708,-0.17707 -0.31771,-0.388 -0.42187,-0.63282 -0.10417,-0.24477 -0.15625,-0.50258 -0.15625,-0.77343 0,-0.27082 0.0521,-0.52602 0.15625,-0.76563 0.10416,-0.23956 0.24479,-0.44789 0.42187,-0.625 0.17708,-0.17706 0.38802,-0.31508 0.63282,-0.41406 0.24478,-0.0989 0.5026,-0.14842 0.77343,-0.14844 0.27083,2e-5 0.52344,0.0495 0.75782,0.14844 0.23437,0.099 0.4401,0.237 0.61718,0.41406 0.17708,0.17711 0.3151,0.38544 0.41407,0.625 0.099,0.23961 0.14843,0.49481 0.14843,0.76563 z"
               style=""
               id="path10889" />
            <path
               d="m 402.5625,332.60327 c -0.3646,0.1875 -0.74741,0.37761 -1.14844,0.57031 -0.40105,0.19271 -0.82813,0.36198 -1.28125,0.50782 -0.45313,0.14583 -0.92709,0.26562 -1.42187,0.35937 -0.4948,0.0937 -1.01303,0.14063 -1.55469,0.14063 -1.12501,0 -2.13803,-0.20052 -3.03906,-0.60157 -0.90105,-0.40104 -1.66928,-0.95833 -2.30469,-1.67187 -0.63542,-0.71354 -1.125,-1.55989 -1.46875,-2.53906 -0.34375,-0.97916 -0.51563,-2.04166 -0.51563,-3.1875 0,-1.34374 0.20834,-2.52604 0.625,-3.54688 0.41667,-1.02082 0.97917,-1.87759 1.6875,-2.57031 0.70833,-0.69269 1.52865,-1.21353 2.46094,-1.5625 0.93229,-0.34894 1.90885,-0.52342 2.92969,-0.52344 0.69791,2e-5 1.35155,0.0703 1.96094,0.21094 0.60936,0.14064 1.1354,0.34637 1.57812,0.61719 0.4427,0.27084 0.79166,0.60418 1.04688,1 0.25519,0.39584 0.3828,0.85418 0.38281,1.375 -10e-6,0.31251 -0.0547,0.58595 -0.16406,0.82031 -0.10939,0.23439 -0.25262,0.4323 -0.42969,0.59375 -0.1771,0.16147 -0.37762,0.28126 -0.60156,0.35937 -0.22397,0.0781 -0.45574,0.1172 -0.69532,0.11719 -0.35417,10e-6 -0.66146,-0.0599 -0.92187,-0.17969 -0.26043,-0.11978 -0.48959,-0.24217 -0.6875,-0.36718 l 0,-2.78125 c -0.21876,-0.12499 -0.44532,-0.22655 -0.67969,-0.30469 -0.23438,-0.0781 -0.45574,-0.11717 -0.66406,-0.11719 -0.70834,2e-5 -1.34636,0.16147 -1.91406,0.48438 -0.56772,0.32293 -1.04688,0.77084 -1.4375,1.34375 -0.39063,0.57293 -0.69011,1.25261 -0.89844,2.03906 -0.20834,0.78647 -0.3125,1.64324 -0.3125,2.57031 0,0.88543 0.11197,1.71876 0.33594,2.5 0.22395,0.78126 0.55728,1.46094 1,2.03906 0.4427,0.57813 0.99478,1.03386 1.65625,1.36719 0.66145,0.33334 1.42968,0.5 2.30468,0.5 0.74999,0 1.46093,-0.11718 2.13282,-0.35156 0.67186,-0.23437 1.35155,-0.58073 2.03906,-1.03906 z"
               style=""
               id="path10891" />
            <path
               d="m 414.17187,333.79077 0,-1.25 1.3125,-0.0937 c 0.18749,-0.0208 0.35156,-0.0937 0.49219,-0.21875 0.14062,-0.125 0.21093,-0.28645 0.21094,-0.48437 l 0,-8.25 c -10e-6,-0.45833 -0.0495,-0.8802 -0.14844,-1.26563 -0.099,-0.3854 -0.27084,-0.71874 -0.51562,-1 -0.24481,-0.28124 -0.57033,-0.50259 -0.97657,-0.66406 -0.40626,-0.16145 -0.91667,-0.24218 -1.53125,-0.24219 -0.28125,10e-6 -0.57813,0.0234 -0.89062,0.0703 -0.31251,0.0469 -0.6224,0.112 -0.92969,0.19532 -0.3073,0.0833 -0.60417,0.1823 -0.89062,0.29687 -0.28647,0.1146 -0.54428,0.23439 -0.77344,0.35938 l 0,10.5 c -10e-6,0.19792 0.0573,0.35937 0.17187,0.48437 0.11458,0.125 0.27083,0.19792 0.46875,0.21875 l 1.375,0.0937 0,1.25 -7.20312,0 0,-1.25 1.53125,-0.0937 c 0.19791,-0.0208 0.35937,-0.0937 0.48437,-0.21875 0.125,-0.125 0.1875,-0.28645 0.1875,-0.48437 l 0,-19.23438 -2.39062,0 0,-1.0625 4.09375,-1.23437 1.28125,0 0,9.75 c 0.29166,-0.17707 0.65104,-0.3802 1.07812,-0.60938 0.42708,-0.22915 0.88281,-0.4453 1.36719,-0.64844 0.48437,-0.20311 0.97395,-0.37498 1.46875,-0.51562 0.49478,-0.14061 0.95051,-0.21092 1.36719,-0.21094 0.61457,2e-5 1.18488,0.099 1.71094,0.29688 0.52603,0.19793 0.98436,0.4948 1.375,0.89062 0.39061,0.39585 0.6979,0.89845 0.92187,1.50781 0.22395,0.60939 0.33592,1.32554 0.33594,2.14844 l 0,8.92188 c -2e-5,0.19792 0.0703,0.35937 0.21094,0.48437 0.14061,0.125 0.30467,0.19792 0.49218,0.21875 l 1.4375,0.0937 0,1.25 z"
               style=""
               id="path10893" />
            <path
               d="m 432.70312,333.1189 c -0.39584,0.19791 -0.82813,0.375 -1.29687,0.53125 -0.39584,0.13541 -0.85418,0.25781 -1.375,0.36718 -0.52084,0.10938 -1.06772,0.16407 -1.64063,0.16407 -1.20833,0 -2.08333,-0.28125 -2.625,-0.84375 -0.54166,-0.5625 -0.8125,-1.47917 -0.8125,-2.75 l 0,-10.625 -2.04687,0 0,-1.04688 2.1875,-1.03125 1.4375,-3.39062 1.40625,0 0,3.875 4.51562,0 0,1.59375 -4.51562,0 0,8.9375 c -10e-6,0.63542 0.0547,1.17448 0.16406,1.61718 0.10937,0.44272 0.27083,0.80209 0.48438,1.07813 0.21353,0.27604 0.47916,0.47656 0.79687,0.60156 0.3177,0.125 0.6901,0.1875 1.11719,0.1875 0.31249,0 0.60155,-0.026 0.86719,-0.0781 0.26561,-0.0521 0.49738,-0.11459 0.69531,-0.1875 0.22916,-0.0833 0.4427,-0.17708 0.64062,-0.28125 z"
               style=""
               id="path10895" />
            <path
               d="m 320.57812,360.4439 c -1.4375,0.36459 -2.57813,0.72396 -3.42187,1.07812 -0.84376,0.35418 -1.48178,0.71095 -1.91406,1.07031 -0.4323,0.35939 -0.70834,0.72397 -0.82813,1.09375 -0.11979,0.3698 -0.17969,0.75261 -0.17969,1.14844 0,0.33334 0.0547,0.65886 0.16407,0.97656 0.10937,0.31772 0.26562,0.60157 0.46875,0.85157 0.20312,0.25 0.45312,0.45052 0.75,0.60156 0.29687,0.15104 0.63801,0.22656 1.02343,0.22656 0.42708,0 0.87239,-0.0781 1.33594,-0.23437 0.46354,-0.15625 0.88801,-0.32813 1.27344,-0.51563 0.44791,-0.21875 0.89061,-0.47395 1.32812,-0.76562 z m 0.42188,8.54687 -0.42188,-1.89062 c -0.56251,0.42708 -1.14063,0.80729 -1.73437,1.14062 -0.26043,0.14584 -0.53647,0.28646 -0.82813,0.42188 -0.29167,0.13541 -0.59115,0.25781 -0.89843,0.36718 -0.3073,0.10938 -0.6198,0.19532 -0.9375,0.25782 -0.31772,0.0625 -0.63282,0.0937 -0.94532,0.0937 -0.58333,0 -1.1276,-0.099 -1.63281,-0.29688 -0.50521,-0.19791 -0.94531,-0.48437 -1.32031,-0.85937 -0.375,-0.375 -0.66927,-0.82813 -0.88281,-1.35938 -0.21355,-0.53125 -0.32032,-1.13541 -0.32032,-1.8125 0,-0.39583 0.0391,-0.77083 0.11719,-1.125 0.0781,-0.35416 0.23698,-0.69791 0.47656,-1.03125 0.23959,-0.33332 0.57552,-0.65364 1.00782,-0.96094 0.43229,-0.30728 0.99999,-0.61197 1.70312,-0.91406 0.70312,-0.30207 1.5625,-0.60155 2.57813,-0.89844 1.01561,-0.29686 2.22134,-0.59634 3.61718,-0.89843 l 0,-1.375 c -1e-5,-1.07291 -0.23959,-1.86718 -0.71875,-2.38282 -0.47917,-0.51561 -1.23438,-0.77342 -2.26562,-0.77343 -0.56251,1e-5 -1.04167,0.0521 -1.4375,0.15625 -0.39584,0.10418 -0.67188,0.18751 -0.82813,0.25 l 0,2.78125 -2.32812,0 c -0.14584,1e-5 -0.28907,-0.0104 -0.42969,-0.0312 -0.14062,-0.0208 -0.26823,-0.0651 -0.38281,-0.13282 -0.11459,-0.0677 -0.20573,-0.16144 -0.27344,-0.28125 -0.0677,-0.11978 -0.10156,-0.27863 -0.10156,-0.47656 0,-0.65624 0.19791,-1.22134 0.59375,-1.69531 0.39583,-0.47394 0.91145,-0.86717 1.54687,-1.17969 0.63542,-0.31248 1.34896,-0.54165 2.14063,-0.6875 0.79166,-0.14582 1.58333,-0.21873 2.375,-0.21875 0.98957,2e-5 1.80989,0.11981 2.46094,0.35938 0.65103,0.2396 1.16665,0.57293 1.54687,1 0.3802,0.42709 0.64843,0.9323 0.80469,1.51562 0.15624,0.58335 0.23436,1.22397 0.23437,1.92188 l 0,8.96875 c -1e-5,0.19792 0.0651,0.35937 0.19532,0.48437 0.13019,0.125 0.28905,0.19792 0.47656,0.21875 l 1.54687,0.0937 0,1.25 z"
               style=""
               id="path10897" />
            <path
               d="m 342.96875,360.53765 c -2e-5,1.20834 -0.1771,2.32552 -0.53125,3.35156 -0.35418,1.02605 -0.90366,1.91927 -1.64844,2.67969 -0.7448,0.76042 -1.69793,1.35416 -2.85937,1.78125 -1.16147,0.42708 -2.54428,0.64062 -4.14844,0.64062 l -4.60938,0 0,-21.28125 -2.42187,0 0,-1.0625 4.125,-1.23437 1.28125,0 0,8.95312 c 0.18749,-0.0833 0.43229,-0.19269 0.73437,-0.32812 0.30208,-0.1354 0.64844,-0.26561 1.03907,-0.39063 0.39061,-0.12498 0.80988,-0.23436 1.25781,-0.32812 0.44791,-0.0937 0.90624,-0.14061 1.375,-0.14063 1.05207,2e-5 1.97655,0.19793 2.77344,0.59375 0.79686,0.39585 1.46613,0.93231 2.00781,1.60938 0.54165,0.67709 0.9479,1.46095 1.21875,2.35156 0.27082,0.89064 0.40623,1.82553 0.40625,2.80469 z m -3.26563,0.64062 c -1e-5,-2.0104 -0.4297,-3.53124 -1.28906,-4.5625 -0.85938,-1.03123 -2.0599,-1.54686 -3.60156,-1.54687 -0.17709,1e-5 -0.38542,0.0156 -0.625,0.0469 -0.23959,0.0313 -0.48178,0.0729 -0.72656,0.125 -0.2448,0.0521 -0.48438,0.10939 -0.71875,0.17188 -0.23438,0.0625 -0.4297,0.1198 -0.58594,0.17187 l 0,11.875 c 0.17708,0.0104 0.35937,0.0156 0.54687,0.0156 0.15625,0.0104 0.32291,0.0156 0.5,0.0156 l 0.51563,0 c 0.94791,0 1.79166,-0.10937 2.53125,-0.32812 0.73957,-0.21875 1.36457,-0.57813 1.875,-1.07813 0.5104,-0.49999 0.90103,-1.15104 1.17187,-1.95312 0.27083,-0.80208 0.40624,-1.78645 0.40625,-2.95313 z"
               style=""
               id="path10899" />
            <path
               d="m 344.90625,368.99077 0,-1.25 1.70312,-0.0937 c 0.14584,0 0.29948,-0.0755 0.46094,-0.22656 0.16146,-0.15104 0.24219,-0.29948 0.24219,-0.44531 l 0,-19.26563 -2.4375,0 0,-1.0625 4.09375,-1.23437 1.3125,0 0,21.5625 c -10e-6,0.14583 0.0755,0.29427 0.22656,0.44531 0.15104,0.15104 0.29947,0.22656 0.44531,0.22656 l 1.73438,0.0937 0,1.25 z"
               style=""
               id="path10901" />
            <path
               d="m 368.14062,367.39702 c -0.44793,0.28125 -0.91407,0.54167 -1.39843,0.78125 -0.48439,0.23959 -0.98439,0.44792 -1.5,0.625 -0.51564,0.17709 -1.03908,0.31771 -1.57032,0.42188 -0.53125,0.10416 -1.06771,0.15625 -1.60937,0.15625 -0.96876,0 -1.90105,-0.16407 -2.79688,-0.49219 -0.89583,-0.32812 -1.68489,-0.82031 -2.36718,-1.47656 -0.6823,-0.65625 -1.22917,-1.48177 -1.64063,-2.47657 -0.41146,-0.99478 -0.61719,-2.15884 -0.61719,-3.49218 0,-1.24999 0.1875,-2.38281 0.5625,-3.39844 0.375,-1.01561 0.89584,-1.8854 1.5625,-2.60938 0.66667,-0.72394 1.45833,-1.28123 2.375,-1.67187 0.91667,-0.39061 1.92187,-0.58592 3.01563,-0.58594 0.98957,2e-5 1.85936,0.16408 2.60937,0.49219 0.74999,0.32814 1.37499,0.78126 1.875,1.35937 0.49999,0.57814 0.87499,1.27085 1.125,2.07813 0.24999,0.8073 0.37499,1.68491 0.375,2.63281 l 0,0.42188 c -1e-5,0.16667 -0.0104,0.32292 -0.0312,0.46875 l -10.375,0 c 0,0.8125 0.0859,1.625 0.25782,2.4375 0.17187,0.8125 0.46093,1.54167 0.86718,2.1875 0.40625,0.64583 0.95312,1.16927 1.64063,1.57031 0.68749,0.40104 1.54687,0.60156 2.57812,0.60156 0.45833,0 0.91145,-0.0599 1.35938,-0.17969 0.44791,-0.11979 0.88801,-0.27343 1.32031,-0.46093 0.43228,-0.1875 0.84634,-0.39844 1.24219,-0.63282 0.39582,-0.23437 0.77603,-0.47135 1.14062,-0.71093 z m -3.20312,-8.90625 c -10e-6,-0.53124 -0.0625,-1.02342 -0.1875,-1.47656 -0.12501,-0.45311 -0.31512,-0.84634 -0.57031,-1.17969 -0.25522,-0.33332 -0.57814,-0.59634 -0.96875,-0.78906 -0.39064,-0.19269 -0.85157,-0.28905 -1.38282,-0.28906 -0.53125,1e-5 -1.02604,0.10157 -1.48437,0.30468 -0.45834,0.20314 -0.86199,0.49741 -1.21094,0.88282 -0.34896,0.38543 -0.63021,0.85157 -0.84375,1.39843 -0.21354,0.54689 -0.34115,1.16408 -0.38281,1.85157 l 7.03125,0 z"
               style=""
               id="path10903" />
            <path
               d="m 379.73437,368.99077 0,-1.25 1.3125,-0.0937 c 0.18749,-0.0208 0.35156,-0.0937 0.49219,-0.21875 0.14062,-0.125 0.21093,-0.28645 0.21094,-0.48437 l 0,-8.25 c -10e-6,-0.45833 -0.0495,-0.8802 -0.14844,-1.26563 -0.099,-0.3854 -0.27084,-0.71874 -0.51562,-1 -0.24481,-0.28123 -0.57033,-0.50259 -0.97657,-0.66406 -0.40626,-0.16145 -0.91667,-0.24217 -1.53125,-0.24219 -0.28125,2e-5 -0.57813,0.0235 -0.89062,0.0703 -0.31251,0.0469 -0.6224,0.112 -0.92969,0.19532 -0.3073,0.0833 -0.60417,0.1823 -0.89062,0.29687 -0.28647,0.1146 -0.54428,0.23439 -0.77344,0.35938 l 0,10.5 c -10e-6,0.19792 0.0573,0.35937 0.17187,0.48437 0.11458,0.125 0.27083,0.19792 0.46875,0.21875 l 1.375,0.0937 0,1.25 -7.20312,0 0,-1.25 1.53125,-0.0937 c 0.19791,-0.0208 0.35937,-0.0937 0.48437,-0.21875 0.125,-0.125 0.1875,-0.28645 0.1875,-0.48437 l 0,-19.23438 -2.39062,0 0,-1.0625 4.09375,-1.23437 1.28125,0 0,9.75 c 0.29166,-0.17707 0.65104,-0.3802 1.07812,-0.60938 0.42708,-0.22915 0.88281,-0.4453 1.36719,-0.64844 0.48437,-0.2031 0.97395,-0.37498 1.46875,-0.51562 0.49478,-0.14061 0.95051,-0.21092 1.36719,-0.21094 0.61457,2e-5 1.18488,0.099 1.71094,0.29688 0.52603,0.19793 0.98436,0.4948 1.375,0.89062 0.39061,0.39585 0.6979,0.89845 0.92187,1.50781 0.22395,0.60939 0.33592,1.32554 0.33594,2.14844 l 0,8.92188 c -2e-5,0.19792 0.0703,0.35937 0.21094,0.48437 0.14061,0.125 0.30467,0.19792 0.49218,0.21875 l 1.4375,0.0937 0,1.25 z"
               style=""
               id="path10905" />
            <path
               d="m 398.04687,368.99077 0,-1.25 1.34375,-0.0937 c 0.18749,-0.0208 0.34635,-0.0937 0.47657,-0.21875 0.13019,-0.125 0.1953,-0.28645 0.19531,-0.48437 l 0,-8.32813 c -10e-6,-1.0104 -0.23439,-1.77863 -0.70313,-2.30469 -0.46876,-0.52602 -1.26042,-0.78904 -2.375,-0.78906 -0.61459,2e-5 -1.21875,0.086 -1.8125,0.25781 -0.59375,0.17189 -1.16146,0.39325 -1.70312,0.66407 l 0,10.5 c -10e-6,0.19792 0.0625,0.35937 0.1875,0.48437 0.12499,0.125 0.28645,0.19792 0.48437,0.21875 l 1.34375,0.0937 0,1.25 -7.23437,0 0,-1.25 1.5625,-0.0937 c 0.19791,-0.0208 0.35937,-0.0937 0.48437,-0.21875 0.125,-0.125 0.1875,-0.28645 0.1875,-0.48437 l 0,-11.10938 -2.23437,0 0,-1.04687 3.90625,-1.21875 1.3125,0 0,1.59375 c 0.44791,-0.24999 0.90364,-0.49478 1.36719,-0.73438 0.46353,-0.23957 0.92447,-0.45311 1.38281,-0.64062 0.45832,-0.18749 0.90103,-0.33592 1.32812,-0.44532 0.42708,-0.10935 0.82812,-0.16404 1.20313,-0.16406 1.39582,2e-5 2.45832,0.43231 3.1875,1.29688 0.72915,0.86459 1.09373,2.07813 1.09375,3.64062 l 0,8.82813 c -2e-5,0.19792 0.0651,0.35937 0.19531,0.48437 0.1302,0.125 0.28905,0.19792 0.47656,0.21875 l 1.40625,0.0937 0,1.25 z"
               style=""
               id="path10907" />
            <path
               d="m 420.32812,367.39702 c -0.44793,0.28125 -0.91407,0.54167 -1.39843,0.78125 -0.48439,0.23959 -0.98439,0.44792 -1.5,0.625 -0.51564,0.17709 -1.03908,0.31771 -1.57032,0.42188 -0.53125,0.10416 -1.06771,0.15625 -1.60937,0.15625 -0.96876,0 -1.90105,-0.16407 -2.79688,-0.49219 -0.89583,-0.32812 -1.68489,-0.82031 -2.36718,-1.47656 -0.6823,-0.65625 -1.22917,-1.48177 -1.64063,-2.47657 -0.41146,-0.99478 -0.61719,-2.15884 -0.61719,-3.49218 0,-1.24999 0.1875,-2.38281 0.5625,-3.39844 0.375,-1.01561 0.89584,-1.8854 1.5625,-2.60938 0.66667,-0.72394 1.45833,-1.28123 2.375,-1.67187 0.91667,-0.39061 1.92187,-0.58592 3.01563,-0.58594 0.98957,2e-5 1.85936,0.16408 2.60937,0.49219 0.74999,0.32814 1.37499,0.78126 1.875,1.35937 0.49999,0.57814 0.87499,1.27085 1.125,2.07813 0.24999,0.8073 0.37499,1.68491 0.375,2.63281 l 0,0.42188 c -1e-5,0.16667 -0.0104,0.32292 -0.0312,0.46875 l -10.375,0 c 0,0.8125 0.0859,1.625 0.25782,2.4375 0.17187,0.8125 0.46093,1.54167 0.86718,2.1875 0.40625,0.64583 0.95312,1.16927 1.64063,1.57031 0.68749,0.40104 1.54687,0.60156 2.57812,0.60156 0.45833,0 0.91145,-0.0599 1.35938,-0.17969 0.44791,-0.11979 0.88801,-0.27343 1.32031,-0.46093 0.43228,-0.1875 0.84634,-0.39844 1.24219,-0.63282 0.39582,-0.23437 0.77603,-0.47135 1.14062,-0.71093 z m -3.20312,-8.90625 c -10e-6,-0.53124 -0.0625,-1.02342 -0.1875,-1.47656 -0.12501,-0.45311 -0.31512,-0.84634 -0.57031,-1.17969 -0.25522,-0.33332 -0.57814,-0.59634 -0.96875,-0.78906 -0.39064,-0.19269 -0.85157,-0.28905 -1.38282,-0.28906 -0.53125,1e-5 -1.02604,0.10157 -1.48437,0.30468 -0.45834,0.20314 -0.86199,0.49741 -1.21094,0.88282 -0.34896,0.38543 -0.63021,0.85157 -0.84375,1.39843 -0.21354,0.54689 -0.34115,1.16408 -0.38281,1.85157 l 7.03125,0 z"
               style=""
               id="path10909" />
            <path
               d="m 431.85937,368.99077 0,-1.25 1.34375,-0.0937 c 0.18749,-0.0208 0.34635,-0.0937 0.47657,-0.21875 0.13019,-0.125 0.1953,-0.28645 0.19531,-0.48437 l 0,-8.32813 c -10e-6,-1.0104 -0.23439,-1.77863 -0.70313,-2.30469 -0.46876,-0.52602 -1.26042,-0.78904 -2.375,-0.78906 -0.61459,2e-5 -1.21875,0.086 -1.8125,0.25781 -0.59375,0.17189 -1.16146,0.39325 -1.70312,0.66407 l 0,10.5 c -10e-6,0.19792 0.0625,0.35937 0.1875,0.48437 0.12499,0.125 0.28645,0.19792 0.48437,0.21875 l 1.34375,0.0937 0,1.25 -7.23437,0 0,-1.25 1.5625,-0.0937 c 0.19791,-0.0208 0.35937,-0.0937 0.48437,-0.21875 0.125,-0.125 0.1875,-0.28645 0.1875,-0.48437 l 0,-11.10938 -2.23437,0 0,-1.04687 3.90625,-1.21875 1.3125,0 0,1.59375 c 0.44791,-0.24999 0.90364,-0.49478 1.36719,-0.73438 0.46353,-0.23957 0.92447,-0.45311 1.38281,-0.64062 0.45832,-0.18749 0.90103,-0.33592 1.32812,-0.44532 0.42708,-0.10935 0.82812,-0.16404 1.20313,-0.16406 1.39582,2e-5 2.45832,0.43231 3.1875,1.29688 0.72915,0.86459 1.09373,2.07813 1.09375,3.64062 l 0,8.82813 c -2e-5,0.19792 0.0651,0.35937 0.19531,0.48437 0.1302,0.125 0.28905,0.19792 0.47656,0.21875 l 1.40625,0.0937 0,1.25 z"
               style=""
               id="path10911" />
          </g>
          <g
             style="font-size:32px;font-style:normal;font-variant:normal;font-weight:normal;font-stretch:normal;text-align:center;line-height:110.00000238%;letter-spacing:0px;word-spacing:0px;writing-mode:lr-tb;text-anchor:middle;fill:#000000;fill-opacity:1;stroke:none;font-family:Charis SIL;-inkscape-font-specification:Charis SIL"
             id="text3057">
            <path
               d="m 565.93304,313.82202 c -0.19793,0.0208 -0.362,0.0807 -0.49218,0.17969 -0.13023,0.099 -0.22138,0.25262 -0.27344,0.46094 l -3.32813,17.21875 c -0.0313,0.15625 -0.005,0.29166 0.0781,0.40625 0.0833,0.11458 0.27081,0.18229 0.5625,0.20312 l 1.79687,0.15625 0,1.34375 -8.35937,0 0,-1.34375 1.92187,-0.15625 c 0.18749,-0.0208 0.35416,-0.0807 0.5,-0.17969 0.14582,-0.099 0.23436,-0.24218 0.26563,-0.42968 l 1.59375,-8.32813 -9.98438,0 -1.59375,8.32813 c -0.0312,0.15625 -0.005,0.29166 0.0781,0.40625 0.0833,0.11458 0.26041,0.18229 0.53125,0.20312 l 1.85937,0.15625 0,1.34375 -8.32812,0 0,-1.34375 1.82812,-0.15625 c 0.4375,-0.0312 0.70313,-0.23437 0.79688,-0.60937 l 3.32812,-17.21875 c 0.0312,-0.17707 0.005,-0.3229 -0.0781,-0.4375 -0.0833,-0.11457 -0.27084,-0.18228 -0.5625,-0.20313 l -1.78125,-0.15625 0,-1.34375 8.3125,0 0,1.34375 -1.89063,0.15625 c -0.1875,0.0208 -0.35417,0.0807 -0.5,0.17969 -0.14584,0.099 -0.23438,0.25262 -0.26562,0.46094 l -1.40625,7.29687 9.98437,0 1.40625,-7.29687 c 0.0312,-0.17707 0.005,-0.3229 -0.0781,-0.4375 -0.0833,-0.11457 -0.27085,-0.18228 -0.5625,-0.20313 l -1.82813,-0.15625 0,-1.34375 8.32813,0 0,1.34375 z"
               style="font-style:oblique;-inkscape-font-specification:Charis SIL Oblique"
               id="path10914" />
            <path
               d="m 575.10492,334.2439 c -10e-6,-0.71875 -0.0443,-1.42188 -0.13281,-2.10938 -0.0886,-0.6875 -0.23959,-1.29947 -0.45313,-1.83594 -0.21355,-0.53645 -0.50001,-0.96874 -0.85937,-1.29687 -0.35938,-0.32812 -0.81511,-0.49218 -1.36719,-0.49219 -0.55209,10e-6 -1.01042,0.16407 -1.375,0.49219 -0.36459,0.32813 -0.65625,0.76042 -0.875,1.29687 -0.21875,0.53647 -0.3724,1.14844 -0.46094,1.83594 -0.0885,0.6875 -0.13281,1.39063 -0.13281,2.10938 0,0.71875 0.0443,1.41927 0.13281,2.10156 0.0885,0.68229 0.24219,1.28906 0.46094,1.82031 0.21875,0.53125 0.51041,0.95833 0.875,1.28125 0.36458,0.32291 0.82291,0.48437 1.375,0.48438 0.55208,-10e-6 1.00781,-0.16147 1.36719,-0.48438 0.35936,-0.32292 0.64582,-0.75 0.85937,-1.28125 0.21354,-0.53125 0.36458,-1.13802 0.45313,-1.82031 0.0885,-0.68229 0.1328,-1.38281 0.13281,-2.10156 z m 2.20312,0 c -10e-6,0.91666 -0.10157,1.77864 -0.30468,2.58593 -0.20314,0.80729 -0.51303,1.51302 -0.92969,2.11719 -0.41668,0.60416 -0.94011,1.08072 -1.57031,1.42969 -0.63022,0.34895 -1.3672,0.52343 -2.21094,0.52344 -0.84376,-10e-6 -1.58073,-0.17449 -2.21094,-0.52344 -0.63021,-0.34897 -1.15365,-0.82553 -1.57031,-1.42969 -0.41667,-0.60417 -0.72917,-1.3099 -0.9375,-2.11719 -0.20833,-0.80729 -0.3125,-1.66927 -0.3125,-2.58593 0,-0.91667 0.10417,-1.78125 0.3125,-2.59375 0.20833,-0.8125 0.52083,-1.52344 0.9375,-2.13282 0.41666,-0.60937 0.9401,-1.08853 1.57031,-1.4375 0.63021,-0.34895 1.36718,-0.52343 2.21094,-0.52343 0.84374,0 1.58072,0.17448 2.21094,0.52343 0.6302,0.34897 1.15363,0.82813 1.57031,1.4375 0.41666,0.60938 0.72655,1.32032 0.92969,2.13282 0.20311,0.8125 0.30467,1.67708 0.30468,2.59375 z"
               style=""
               id="path10916" />
            <path
               d="m 506.52679,360.4439 c -1.4375,0.36459 -2.57813,0.72396 -3.42187,1.07812 -0.84376,0.35418 -1.48178,0.71095 -1.91406,1.07031 -0.4323,0.35939 -0.70834,0.72397 -0.82813,1.09375 -0.11979,0.3698 -0.17969,0.75261 -0.17969,1.14844 0,0.33334 0.0547,0.65886 0.16407,0.97656 0.10937,0.31772 0.26562,0.60157 0.46875,0.85157 0.20312,0.25 0.45312,0.45052 0.75,0.60156 0.29687,0.15104 0.63801,0.22656 1.02343,0.22656 0.42708,0 0.87239,-0.0781 1.33594,-0.23437 0.46354,-0.15625 0.88801,-0.32813 1.27344,-0.51563 0.44791,-0.21875 0.89061,-0.47395 1.32812,-0.76562 z m 0.42188,8.54687 -0.42188,-1.89062 c -0.56251,0.42708 -1.14063,0.80729 -1.73437,1.14062 -0.26043,0.14584 -0.53647,0.28646 -0.82813,0.42188 -0.29167,0.13541 -0.59115,0.25781 -0.89843,0.36718 -0.3073,0.10938 -0.6198,0.19532 -0.9375,0.25782 -0.31772,0.0625 -0.63282,0.0937 -0.94532,0.0937 -0.58333,0 -1.1276,-0.099 -1.63281,-0.29688 -0.50521,-0.19791 -0.94531,-0.48437 -1.32031,-0.85937 -0.375,-0.375 -0.66927,-0.82813 -0.88281,-1.35938 -0.21355,-0.53125 -0.32032,-1.13541 -0.32032,-1.8125 0,-0.39583 0.0391,-0.77083 0.11719,-1.125 0.0781,-0.35416 0.23698,-0.69791 0.47656,-1.03125 0.23959,-0.33332 0.57552,-0.65364 1.00782,-0.96094 0.43229,-0.30728 0.99999,-0.61197 1.70312,-0.91406 0.70312,-0.30207 1.5625,-0.60155 2.57813,-0.89844 1.01561,-0.29686 2.22134,-0.59634 3.61718,-0.89843 l 0,-1.375 c -1e-5,-1.07291 -0.23959,-1.86718 -0.71875,-2.38282 -0.47917,-0.51561 -1.23438,-0.77342 -2.26562,-0.77343 -0.56251,1e-5 -1.04167,0.0521 -1.4375,0.15625 -0.39584,0.10418 -0.67188,0.18751 -0.82813,0.25 l 0,2.78125 -2.32812,0 c -0.14584,1e-5 -0.28907,-0.0104 -0.42969,-0.0312 -0.14063,-0.0208 -0.26823,-0.0651 -0.38281,-0.13282 -0.11459,-0.0677 -0.20573,-0.16144 -0.27344,-0.28125 -0.0677,-0.11978 -0.10156,-0.27863 -0.10156,-0.47656 0,-0.65624 0.19791,-1.22134 0.59375,-1.69531 0.39583,-0.47394 0.91145,-0.86717 1.54687,-1.17969 0.63542,-0.31248 1.34896,-0.54165 2.14063,-0.6875 0.79166,-0.14582 1.58333,-0.21873 2.375,-0.21875 0.98957,2e-5 1.80988,0.11981 2.46094,0.35938 0.65103,0.2396 1.16665,0.57293 1.54687,1 0.3802,0.42709 0.64843,0.9323 0.80469,1.51562 0.15624,0.58335 0.23436,1.22397 0.23437,1.92188 l 0,8.96875 c -1e-5,0.19792 0.0651,0.35937 0.19532,0.48437 0.13019,0.125 0.28905,0.19792 0.47656,0.21875 l 1.54687,0.0937 0,1.25 z"
               style=""
               id="path10918" />
            <path
               d="m 528.91742,360.53765 c -2e-5,1.20834 -0.1771,2.32552 -0.53125,3.35156 -0.35418,1.02605 -0.90366,1.91927 -1.64844,2.67969 -0.7448,0.76042 -1.69793,1.35416 -2.85937,1.78125 -1.16147,0.42708 -2.54428,0.64062 -4.14844,0.64062 l -4.60938,0 0,-21.28125 -2.42187,0 0,-1.0625 4.125,-1.23437 1.28125,0 0,8.95312 c 0.18749,-0.0833 0.43228,-0.19269 0.73437,-0.32812 0.30208,-0.1354 0.64843,-0.26561 1.03907,-0.39063 0.39061,-0.12498 0.80988,-0.23436 1.25781,-0.32812 0.44791,-0.0937 0.90624,-0.14061 1.375,-0.14063 1.05207,2e-5 1.97655,0.19793 2.77344,0.59375 0.79686,0.39585 1.46613,0.93231 2.00781,1.60938 0.54165,0.67709 0.9479,1.46095 1.21875,2.35156 0.27082,0.89064 0.40623,1.82553 0.40625,2.80469 z m -3.26563,0.64062 c -10e-6,-2.0104 -0.4297,-3.53124 -1.28906,-4.5625 -0.85938,-1.03123 -2.0599,-1.54686 -3.60156,-1.54687 -0.17709,1e-5 -0.38543,0.0156 -0.625,0.0469 -0.23959,0.0313 -0.48178,0.0729 -0.72656,0.125 -0.2448,0.0521 -0.48438,0.10939 -0.71875,0.17188 -0.23438,0.0625 -0.4297,0.1198 -0.58594,0.17187 l 0,11.875 c 0.17708,0.0104 0.35937,0.0156 0.54687,0.0156 0.15625,0.0104 0.32291,0.0156 0.5,0.0156 l 0.51563,0 c 0.94791,0 1.79166,-0.10937 2.53125,-0.32812 0.73957,-0.21875 1.36457,-0.57813 1.875,-1.07813 0.5104,-0.49999 0.90103,-1.15104 1.17187,-1.95312 0.27082,-0.80208 0.40624,-1.78645 0.40625,-2.95313 z"
               style=""
               id="path10920" />
            <path
               d="m 530.85492,368.99077 0,-1.25 1.70312,-0.0937 c 0.14584,0 0.29948,-0.0755 0.46094,-0.22656 0.16146,-0.15104 0.24219,-0.29948 0.24219,-0.44531 l 0,-19.26563 -2.4375,0 0,-1.0625 4.09375,-1.23437 1.3125,0 0,21.5625 c -10e-6,0.14583 0.0755,0.29427 0.22656,0.44531 0.15104,0.15104 0.29947,0.22656 0.44531,0.22656 l 1.73438,0.0937 0,1.25 z"
               style=""
               id="path10922" />
            <path
               d="m 554.08929,367.39702 c -0.44793,0.28125 -0.91407,0.54167 -1.39843,0.78125 -0.48439,0.23959 -0.98439,0.44792 -1.5,0.625 -0.51564,0.17709 -1.03908,0.31771 -1.57032,0.42188 -0.53126,0.10416 -1.06771,0.15625 -1.60937,0.15625 -0.96876,0 -1.90105,-0.16407 -2.79688,-0.49219 -0.89583,-0.32812 -1.6849,-0.82031 -2.36718,-1.47656 -0.6823,-0.65625 -1.22917,-1.48177 -1.64063,-2.47657 -0.41146,-0.99478 -0.61719,-2.15884 -0.61719,-3.49218 0,-1.24999 0.1875,-2.38281 0.5625,-3.39844 0.375,-1.01561 0.89584,-1.8854 1.5625,-2.60938 0.66667,-0.72394 1.45833,-1.28123 2.375,-1.67187 0.91666,-0.39061 1.92187,-0.58592 3.01563,-0.58594 0.98957,2e-5 1.85936,0.16408 2.60937,0.49219 0.74999,0.32814 1.37499,0.78126 1.875,1.35937 0.49999,0.57814 0.87499,1.27085 1.125,2.07813 0.24999,0.8073 0.37499,1.68491 0.375,2.63281 l 0,0.42188 c -10e-6,0.16667 -0.0104,0.32292 -0.0312,0.46875 l -10.375,0 c 0,0.8125 0.0859,1.625 0.25782,2.4375 0.17187,0.8125 0.46093,1.54167 0.86718,2.1875 0.40625,0.64583 0.95312,1.16927 1.64063,1.57031 0.68749,0.40104 1.54687,0.60156 2.57812,0.60156 0.45833,0 0.91145,-0.0599 1.35938,-0.17969 0.4479,-0.11979 0.88801,-0.27343 1.32031,-0.46093 0.43228,-0.1875 0.84634,-0.39844 1.24219,-0.63282 0.39582,-0.23437 0.77603,-0.47135 1.14062,-0.71093 z m -3.20312,-8.90625 c -10e-6,-0.53124 -0.0625,-1.02342 -0.1875,-1.47656 -0.12501,-0.45311 -0.31512,-0.84634 -0.57031,-1.17969 -0.25522,-0.33332 -0.57814,-0.59634 -0.96875,-0.78906 -0.39064,-0.19269 -0.85157,-0.28905 -1.38282,-0.28906 -0.53125,1e-5 -1.02604,0.10157 -1.48437,0.30468 -0.45834,0.20314 -0.86199,0.49741 -1.21094,0.88282 -0.34896,0.38543 -0.63021,0.85157 -0.84375,1.39843 -0.21354,0.54689 -0.34115,1.16408 -0.38281,1.85157 l 7.03125,0 z"
               style=""
               id="path10924" />
            <path
               d="m 565.68304,368.99077 0,-1.25 1.3125,-0.0937 c 0.18749,-0.0208 0.35155,-0.0937 0.49219,-0.21875 0.14061,-0.125 0.21093,-0.28645 0.21094,-0.48437 l 0,-8.25 c -10e-6,-0.45833 -0.0495,-0.8802 -0.14844,-1.26563 -0.099,-0.3854 -0.27084,-0.71874 -0.51562,-1 -0.24481,-0.28123 -0.57033,-0.50259 -0.97657,-0.66406 -0.40626,-0.16145 -0.91667,-0.24217 -1.53125,-0.24219 -0.28125,2e-5 -0.57813,0.0235 -0.89062,0.0703 -0.31251,0.0469 -0.6224,0.112 -0.92969,0.19532 -0.3073,0.0833 -0.60417,0.1823 -0.89062,0.29687 -0.28647,0.1146 -0.54428,0.23439 -0.77344,0.35938 l 0,10.5 c -10e-6,0.19792 0.0573,0.35937 0.17187,0.48437 0.11458,0.125 0.27083,0.19792 0.46875,0.21875 l 1.375,0.0937 0,1.25 -7.20312,0 0,-1.25 1.53125,-0.0937 c 0.19791,-0.0208 0.35937,-0.0937 0.48437,-0.21875 0.125,-0.125 0.1875,-0.28645 0.1875,-0.48437 l 0,-19.23438 -2.39062,0 0,-1.0625 4.09375,-1.23437 1.28125,0 0,9.75 c 0.29166,-0.17707 0.65103,-0.3802 1.07812,-0.60938 0.42708,-0.22915 0.88281,-0.4453 1.36719,-0.64844 0.48437,-0.2031 0.97395,-0.37498 1.46875,-0.51562 0.49478,-0.14061 0.95051,-0.21092 1.36719,-0.21094 0.61457,2e-5 1.18488,0.099 1.71094,0.29688 0.52603,0.19793 0.98436,0.4948 1.375,0.89062 0.39061,0.39585 0.6979,0.89845 0.92187,1.50781 0.22394,0.60939 0.33592,1.32554 0.33594,2.14844 l 0,8.92188 c -2e-5,0.19792 0.0703,0.35937 0.21094,0.48437 0.14061,0.125 0.30467,0.19792 0.49218,0.21875 l 1.4375,0.0937 0,1.25 z"
               style=""
               id="path10926" />
            <path
               d="m 583.99554,368.99077 0,-1.25 1.34375,-0.0937 c 0.18749,-0.0208 0.34635,-0.0937 0.47657,-0.21875 0.13019,-0.125 0.1953,-0.28645 0.19531,-0.48437 l 0,-8.32813 c -10e-6,-1.0104 -0.23439,-1.77863 -0.70313,-2.30469 -0.46876,-0.52602 -1.26042,-0.78904 -2.375,-0.78906 -0.61459,2e-5 -1.21875,0.086 -1.8125,0.25781 -0.59375,0.17189 -1.16146,0.39325 -1.70312,0.66407 l 0,10.5 c -10e-6,0.19792 0.0625,0.35937 0.1875,0.48437 0.12499,0.125 0.28645,0.19792 0.48437,0.21875 l 1.34375,0.0937 0,1.25 -7.23437,0 0,-1.25 1.5625,-0.0937 c 0.19791,-0.0208 0.35937,-0.0937 0.48437,-0.21875 0.125,-0.125 0.1875,-0.28645 0.1875,-0.48437 l 0,-11.10938 -2.23437,0 0,-1.04687 3.90625,-1.21875 1.3125,0 0,1.59375 c 0.44791,-0.24999 0.90364,-0.49478 1.36719,-0.73438 0.46353,-0.23957 0.92447,-0.45311 1.38281,-0.64062 0.45832,-0.18749 0.90103,-0.33592 1.32812,-0.44532 0.42708,-0.10935 0.82812,-0.16404 1.20313,-0.16406 1.39582,2e-5 2.45832,0.43231 3.1875,1.29688 0.72915,0.86459 1.09373,2.07813 1.09375,3.64062 l 0,8.82813 c -2e-5,0.19792 0.0651,0.35937 0.19531,0.48437 0.13019,0.125 0.28905,0.19792 0.47656,0.21875 l 1.40625,0.0937 0,1.25 z"
               style=""
               id="path10928" />
            <path
               d="m 606.27679,367.39702 c -0.44793,0.28125 -0.91407,0.54167 -1.39843,0.78125 -0.48439,0.23959 -0.98439,0.44792 -1.5,0.625 -0.51564,0.17709 -1.03908,0.31771 -1.57032,0.42188 -0.53126,0.10416 -1.06771,0.15625 -1.60937,0.15625 -0.96876,0 -1.90105,-0.16407 -2.79688,-0.49219 -0.89583,-0.32812 -1.6849,-0.82031 -2.36718,-1.47656 -0.6823,-0.65625 -1.22917,-1.48177 -1.64063,-2.47657 -0.41146,-0.99478 -0.61719,-2.15884 -0.61719,-3.49218 0,-1.24999 0.1875,-2.38281 0.5625,-3.39844 0.375,-1.01561 0.89584,-1.8854 1.5625,-2.60938 0.66667,-0.72394 1.45833,-1.28123 2.375,-1.67187 0.91666,-0.39061 1.92187,-0.58592 3.01563,-0.58594 0.98957,2e-5 1.85936,0.16408 2.60937,0.49219 0.74999,0.32814 1.37499,0.78126 1.875,1.35937 0.49999,0.57814 0.87499,1.27085 1.125,2.07813 0.24999,0.8073 0.37499,1.68491 0.375,2.63281 l 0,0.42188 c -10e-6,0.16667 -0.0104,0.32292 -0.0312,0.46875 l -10.375,0 c 0,0.8125 0.0859,1.625 0.25782,2.4375 0.17187,0.8125 0.46093,1.54167 0.86718,2.1875 0.40625,0.64583 0.95312,1.16927 1.64063,1.57031 0.68749,0.40104 1.54687,0.60156 2.57812,0.60156 0.45833,0 0.91145,-0.0599 1.35938,-0.17969 0.4479,-0.11979 0.88801,-0.27343 1.32031,-0.46093 0.43228,-0.1875 0.84634,-0.39844 1.24219,-0.63282 0.39582,-0.23437 0.77603,-0.47135 1.14062,-0.71093 z m -3.20312,-8.90625 c -10e-6,-0.53124 -0.0625,-1.02342 -0.1875,-1.47656 -0.12501,-0.45311 -0.31512,-0.84634 -0.57031,-1.17969 -0.25522,-0.33332 -0.57814,-0.59634 -0.96875,-0.78906 -0.39064,-0.19269 -0.85157,-0.28905 -1.38282,-0.28906 -0.53125,1e-5 -1.02604,0.10157 -1.48437,0.30468 -0.45834,0.20314 -0.86199,0.49741 -1.21094,0.88282 -0.34896,0.38543 -0.63021,0.85157 -0.84375,1.39843 -0.21354,0.54689 -0.34115,1.16408 -0.38281,1.85157 l 7.03125,0 z"
               style=""
               id="path10930" />
            <path
               d="m 617.80804,368.99077 0,-1.25 1.34375,-0.0937 c 0.18749,-0.0208 0.34635,-0.0937 0.47657,-0.21875 0.13019,-0.125 0.1953,-0.28645 0.19531,-0.48437 l 0,-8.32813 c -10e-6,-1.0104 -0.23439,-1.77863 -0.70313,-2.30469 -0.46876,-0.52602 -1.26042,-0.78904 -2.375,-0.78906 -0.61459,2e-5 -1.21875,0.086 -1.8125,0.25781 -0.59375,0.17189 -1.16146,0.39325 -1.70312,0.66407 l 0,10.5 c -10e-6,0.19792 0.0625,0.35937 0.1875,0.48437 0.12499,0.125 0.28645,0.19792 0.48437,0.21875 l 1.34375,0.0937 0,1.25 -7.23437,0 0,-1.25 1.5625,-0.0937 c 0.19791,-0.0208 0.35937,-0.0937 0.48437,-0.21875 0.125,-0.125 0.1875,-0.28645 0.1875,-0.48437 l 0,-11.10938 -2.23437,0 0,-1.04687 3.90625,-1.21875 1.3125,0 0,1.59375 c 0.44791,-0.24999 0.90364,-0.49478 1.36719,-0.73438 0.46353,-0.23957 0.92447,-0.45311 1.38281,-0.64062 0.45832,-0.18749 0.90103,-0.33592 1.32812,-0.44532 0.42708,-0.10935 0.82812,-0.16404 1.20313,-0.16406 1.39582,2e-5 2.45832,0.43231 3.1875,1.29688 0.72915,0.86459 1.09373,2.07813 1.09375,3.64062 l 0,8.82813 c -2e-5,0.19792 0.0651,0.35937 0.19531,0.48437 0.13019,0.125 0.28905,0.19792 0.47656,0.21875 l 1.40625,0.0937 0,1.25 z"
               style=""
               id="path10932" />
          </g>
          <g
             id="g3868"
             transform="translate(0,4)">
            <g
               style="font-size:36px;font-style:normal;font-variant:normal;font-weight:bold;font-stretch:normal;text-align:center;line-height:110.00000238%;letter-spacing:0px;word-spacing:0px;writing-mode:lr-tb;text-anchor:middle;fill:#000000;fill-opacity:1;stroke:none;font-family:Charis SIL;-inkscape-font-specification:Charis SIL Bold"
               id="text3071">
              <path
                 d="m 146.12668,492.12222 c -0.0703,-0.71483 -0.12892,-1.42089 -0.17578,-2.11816 -0.0469,-0.69726 -0.11721,-1.35937 -0.21094,-1.98633 -0.0938,-0.62694 -0.2256,-1.20409 -0.39551,-1.73144 -0.16993,-0.52733 -0.40724,-0.9873 -0.71191,-1.37989 -0.3047,-0.39256 -0.69142,-0.69725 -1.16016,-0.91406 -0.46876,-0.21678 -1.04884,-0.32518 -1.74023,-0.3252 -0.82033,2e-5 -1.49122,0.19338 -2.0127,0.58008 -0.52149,0.38674 -0.93165,0.90529 -1.23047,1.55567 -0.29883,0.6504 -0.50391,1.39747 -0.61523,2.24121 -0.11134,0.84376 -0.167,1.72266 -0.16699,2.63672 -1e-5,0.77344 0.0937,1.51758 0.28125,2.23242 0.18749,0.71485 0.46874,1.34766 0.84375,1.89844 0.37499,0.55078 0.84081,0.99023 1.39746,1.31836 0.55663,0.32812 1.20409,0.49219 1.94238,0.49218 0.56249,10e-6 1.04296,-0.0996 1.44141,-0.29883 0.39842,-0.19921 0.74705,-0.48925 1.0459,-0.87011 0.29881,-0.38086 0.56541,-0.84961 0.7998,-1.40625 0.23436,-0.55664 0.45702,-1.19824 0.66797,-1.92481 z m 8.0332,2.84766 c -0.26955,0.9375 -0.58596,1.76953 -0.94922,2.49609 -0.15236,0.31641 -0.32228,0.6211 -0.50976,0.91407 -0.18752,0.29296 -0.38967,0.55664 -0.60645,0.79101 -0.21682,0.23438 -0.44826,0.42188 -0.69433,0.5625 -0.24612,0.14063 -0.50393,0.21094 -0.77344,0.21094 -0.5508,0 -1.01955,-0.0732 -1.40625,-0.21973 -0.38674,-0.14648 -0.71486,-0.36914 -0.98438,-0.66797 -0.26954,-0.29882 -0.48927,-0.67089 -0.65918,-1.11621 -0.16993,-0.44531 -0.31349,-0.96679 -0.43066,-1.56445 -0.96095,1.13672 -2.08888,2.01563 -3.38379,2.63672 -1.29493,0.62109 -2.79786,0.93164 -4.50879,0.93164 -1.20704,0 -2.24122,-0.26074 -3.10254,-0.78223 -0.86133,-0.52148 -1.57031,-1.19531 -2.12695,-2.02148 -0.55664,-0.82617 -0.96387,-1.75195 -1.22168,-2.77735 -0.25781,-1.02538 -0.38672,-2.04784 -0.38672,-3.06738 0,-1.21874 0.16406,-2.41405 0.49219,-3.58594 0.32812,-1.17186 0.84375,-2.21776 1.54687,-3.13769 0.70312,-0.91991 1.59961,-1.66112 2.68946,-2.22363 1.08983,-0.56249 2.40233,-0.84374 3.9375,-0.84375 1.81639,10e-6 3.29002,0.39845 4.4209,1.19531 1.13084,0.79689 1.97752,1.92189 2.54003,3.375 l 0.93164,-4.13086 3.81446,0 c -0.0235,0.21095 -0.0645,0.45412 -0.12305,0.72949 -0.0586,0.27541 -0.12307,0.56838 -0.19336,0.87891 -0.0703,0.31056 -0.14943,0.6299 -0.2373,0.958 -0.0879,0.32814 -0.17288,0.65041 -0.25489,0.9668 -0.19924,0.72658 -0.41017,1.4883 -0.63281,2.28516 -0.19924,0.76173 -0.40139,1.54102 -0.60644,2.33789 -0.2051,0.79688 -0.4717,1.55274 -0.79981,2.26758 0.12889,0.65625 0.23143,1.24512 0.30762,1.7666 0.0762,0.52149 0.15818,0.96094 0.24609,1.31836 0.0879,0.35742 0.19627,0.62988 0.3252,0.81738 0.12888,0.1875 0.30467,0.28125 0.52734,0.28125 0.1992,0 0.36033,-0.082 0.4834,-0.24609 0.12303,-0.16406 0.22556,-0.3457 0.30762,-0.54493 0.0937,-0.22265 0.16404,-0.48632 0.21093,-0.79101 z"
                 style=""
                 id="path10935" />
            </g>
            <path
               inkscape:connector-curvature="0"
               id="path3082"
               d="m 138.78063,534.41838 33.10141,-57.33332"
               style="fill:none;stroke:#000000;stroke-width:3;stroke-linecap:butt;stroke-linejoin:miter;stroke-miterlimit:4;stroke-opacity:1;stroke-dasharray:none" />
            <g
               style="font-size:36px;font-style:normal;font-variant:normal;font-weight:bold;font-stretch:normal;text-align:center;line-height:110.00000238%;letter-spacing:0px;word-spacing:0px;writing-mode:lr-tb;text-anchor:middle;fill:#000000;fill-opacity:1;stroke:none;font-family:Charis SIL;-inkscape-font-specification:Charis SIL Bold"
               id="text3864">
              <path
                 d="m 158.10771,531.64789 0,-2.98828 c 0.48047,-0.39844 1.11035,-0.88184 1.88965,-1.4502 0.77929,-0.56835 1.61132,-1.20702 2.49609,-1.91601 0.88476,-0.70898 1.77539,-1.47949 2.67188,-2.31153 0.89647,-0.83202 1.708,-1.71092 2.43457,-2.63672 0.72655,-0.92577 1.31835,-1.88963 1.77539,-2.8916 0.45702,-1.00194 0.68553,-2.03025 0.68555,-3.08496 -2e-5,-0.71482 -0.10549,-1.37986 -0.31641,-1.99512 -0.21095,-0.61521 -0.50978,-1.14841 -0.89648,-1.59961 -0.38673,-0.45115 -0.85548,-0.80564 -1.40625,-1.06347 -0.5508,-0.25779 -1.16603,-0.3867 -1.84571,-0.38672 -0.2461,2e-5 -0.45411,0.0147 -0.62402,0.0439 -0.16993,0.0293 -0.32813,0.0645 -0.47461,0.10547 -0.14649,0.041 -0.29298,0.0909 -0.43945,0.14942 -0.14649,0.0586 -0.31935,0.11721 -0.51856,0.17578 l 0,4.85156 c -0.25782,0.12892 -0.52149,0.24611 -0.79101,0.35156 -0.23438,0.0938 -0.49513,0.17287 -0.78223,0.23731 -0.28711,0.0645 -0.57715,0.0967 -0.87012,0.0967 -0.87891,1e-5 -1.5498,-0.24315 -2.01269,-0.72949 -0.46289,-0.48631 -0.69434,-1.12792 -0.69434,-1.92481 0,-0.74998 0.14355,-1.41502 0.43067,-1.99512 0.2871,-0.58005 0.67089,-1.08396 1.15136,-1.51171 0.48047,-0.42772 1.02832,-0.78514 1.64356,-1.07227 0.61523,-0.28709 1.24804,-0.51853 1.89844,-0.69434 0.65038,-0.17575 1.29491,-0.30173 1.93359,-0.37793 0.63866,-0.0761 1.21581,-0.11423 1.73144,-0.11425 1.13671,2e-5 2.20312,0.16994 3.19922,0.50976 0.99608,0.33987 1.86327,0.82034 2.60157,1.44141 0.73826,0.62111 1.31834,1.37111 1.74023,2.25 0.42186,0.87892 0.63279,1.85744 0.63281,2.93555 -2e-5,1.28907 -0.31349,2.50782 -0.94043,3.65625 -0.62697,1.14845 -1.49708,2.27344 -2.61035,3.375 -1.11329,1.10157 -2.43165,2.19727 -3.95508,3.2871 -1.52344,1.08985 -3.17579,2.22071 -4.95703,3.39258 l 10.23047,0 0.68555,-3.16406 2.30273,0 0,7.04883 z"
                 style=""
                 id="path10938" />
            </g>
          </g>
          <g
             id="g3875"
             transform="translate(428.80976,4)">
            <g
               style="font-size:36px;font-style:normal;font-variant:normal;font-weight:bold;font-stretch:normal;text-align:center;line-height:110.00000238%;letter-spacing:0px;word-spacing:0px;writing-mode:lr-tb;text-anchor:middle;fill:#000000;fill-opacity:1;stroke:none;font-family:Charis SIL;-inkscape-font-specification:Charis SIL Bold"
               id="text3877">
              <path
                 d="m 146.12668,492.12222 c -0.0703,-0.71483 -0.12892,-1.42089 -0.17578,-2.11816 -0.0469,-0.69726 -0.11721,-1.35937 -0.21094,-1.98633 -0.0938,-0.62694 -0.2256,-1.20409 -0.39551,-1.73144 -0.16993,-0.52733 -0.40724,-0.9873 -0.71191,-1.37989 -0.3047,-0.39256 -0.69142,-0.69725 -1.16016,-0.91406 -0.46876,-0.21678 -1.04884,-0.32518 -1.74023,-0.3252 -0.82033,2e-5 -1.49122,0.19338 -2.0127,0.58008 -0.52149,0.38674 -0.93165,0.90529 -1.23047,1.55567 -0.29883,0.6504 -0.50391,1.39747 -0.61523,2.24121 -0.11134,0.84376 -0.167,1.72266 -0.16699,2.63672 -1e-5,0.77344 0.0937,1.51758 0.28125,2.23242 0.18749,0.71485 0.46874,1.34766 0.84375,1.89844 0.37499,0.55078 0.84081,0.99023 1.39746,1.31836 0.55663,0.32812 1.20409,0.49219 1.94238,0.49218 0.56249,10e-6 1.04296,-0.0996 1.44141,-0.29883 0.39842,-0.19921 0.74705,-0.48925 1.0459,-0.87011 0.29881,-0.38086 0.56541,-0.84961 0.7998,-1.40625 0.23436,-0.55664 0.45702,-1.19824 0.66797,-1.92481 z m 8.0332,2.84766 c -0.26955,0.9375 -0.58596,1.76953 -0.94922,2.49609 -0.15236,0.31641 -0.32228,0.6211 -0.50976,0.91407 -0.18752,0.29296 -0.38967,0.55664 -0.60645,0.79101 -0.21682,0.23438 -0.44826,0.42188 -0.69433,0.5625 -0.24612,0.14063 -0.50393,0.21094 -0.77344,0.21094 -0.5508,0 -1.01955,-0.0732 -1.40625,-0.21973 -0.38674,-0.14648 -0.71486,-0.36914 -0.98438,-0.66797 -0.26954,-0.29882 -0.48927,-0.67089 -0.65918,-1.11621 -0.16993,-0.44531 -0.31349,-0.96679 -0.43066,-1.56445 -0.96095,1.13672 -2.08888,2.01563 -3.38379,2.63672 -1.29493,0.62109 -2.79786,0.93164 -4.50879,0.93164 -1.20704,0 -2.24122,-0.26074 -3.10254,-0.78223 -0.86133,-0.52148 -1.57031,-1.19531 -2.12695,-2.02148 -0.55664,-0.82617 -0.96387,-1.75195 -1.22168,-2.77735 -0.25781,-1.02538 -0.38672,-2.04784 -0.38672,-3.06738 0,-1.21874 0.16406,-2.41405 0.49219,-3.58594 0.32812,-1.17186 0.84375,-2.21776 1.54687,-3.13769 0.70312,-0.91991 1.59961,-1.66112 2.68946,-2.22363 1.08983,-0.56249 2.40233,-0.84374 3.9375,-0.84375 1.81639,10e-6 3.29002,0.39845 4.4209,1.19531 1.13084,0.79689 1.97752,1.92189 2.54003,3.375 l 0.93164,-4.13086 3.81446,0 c -0.0235,0.21095 -0.0645,0.45412 -0.12305,0.72949 -0.0586,0.27541 -0.12307,0.56838 -0.19336,0.87891 -0.0703,0.31056 -0.14943,0.6299 -0.2373,0.958 -0.0879,0.32814 -0.17288,0.65041 -0.25489,0.9668 -0.19924,0.72658 -0.41017,1.4883 -0.63281,2.28516 -0.19924,0.76173 -0.40139,1.54102 -0.60644,2.33789 -0.2051,0.79688 -0.4717,1.55274 -0.79981,2.26758 0.12889,0.65625 0.23143,1.24512 0.30762,1.7666 0.0762,0.52149 0.15818,0.96094 0.24609,1.31836 0.0879,0.35742 0.19627,0.62988 0.3252,0.81738 0.12888,0.1875 0.30467,0.28125 0.52734,0.28125 0.1992,0 0.36033,-0.082 0.4834,-0.24609 0.12303,-0.16406 0.22556,-0.3457 0.30762,-0.54493 0.0937,-0.22265 0.16404,-0.48632 0.21093,-0.79101 z"
                 style=""
                 id="path10941" />
            </g>
            <path
               style="fill:none;stroke:#000000;stroke-width:3;stroke-linecap:butt;stroke-linejoin:miter;stroke-miterlimit:4;stroke-opacity:1;stroke-dasharray:none"
               d="m 138.78063,534.41838 33.10141,-57.33332"
               id="path3881"
               inkscape:connector-curvature="0" />
            <g
               style="font-size:36px;font-style:normal;font-variant:normal;font-weight:bold;font-stretch:normal;text-align:center;line-height:110.00000238%;letter-spacing:0px;word-spacing:0px;writing-mode:lr-tb;text-anchor:middle;fill:#000000;fill-opacity:1;stroke:none;font-family:Charis SIL;-inkscape-font-specification:Charis SIL Bold"
               id="text3883">
              <path
                 d="m 158.10771,531.64789 0,-2.98828 c 0.48047,-0.39844 1.11035,-0.88184 1.88965,-1.4502 0.77929,-0.56835 1.61132,-1.20702 2.49609,-1.91601 0.88476,-0.70898 1.77539,-1.47949 2.67188,-2.31153 0.89647,-0.83202 1.708,-1.71092 2.43457,-2.63672 0.72655,-0.92577 1.31835,-1.88963 1.77539,-2.8916 0.45702,-1.00194 0.68553,-2.03025 0.68555,-3.08496 -2e-5,-0.71482 -0.10549,-1.37986 -0.31641,-1.99512 -0.21095,-0.61521 -0.50978,-1.14841 -0.89648,-1.59961 -0.38673,-0.45115 -0.85548,-0.80564 -1.40625,-1.06347 -0.5508,-0.25779 -1.16603,-0.3867 -1.84571,-0.38672 -0.2461,2e-5 -0.45411,0.0147 -0.62402,0.0439 -0.16993,0.0293 -0.32813,0.0645 -0.47461,0.10547 -0.14649,0.041 -0.29298,0.0909 -0.43945,0.14942 -0.14649,0.0586 -0.31935,0.11721 -0.51856,0.17578 l 0,4.85156 c -0.25782,0.12892 -0.52149,0.24611 -0.79101,0.35156 -0.23438,0.0938 -0.49513,0.17287 -0.78223,0.23731 -0.28711,0.0645 -0.57715,0.0967 -0.87012,0.0967 -0.87891,1e-5 -1.5498,-0.24315 -2.01269,-0.72949 -0.46289,-0.48631 -0.69434,-1.12792 -0.69434,-1.92481 0,-0.74998 0.14355,-1.41502 0.43067,-1.99512 0.2871,-0.58005 0.67089,-1.08396 1.15136,-1.51171 0.48047,-0.42772 1.02832,-0.78514 1.64356,-1.07227 0.61523,-0.28709 1.24804,-0.51853 1.89844,-0.69434 0.65038,-0.17575 1.29491,-0.30173 1.93359,-0.37793 0.63866,-0.0761 1.21581,-0.11423 1.73144,-0.11425 1.13671,2e-5 2.20312,0.16994 3.19922,0.50976 0.99608,0.33987 1.86327,0.82034 2.60157,1.44141 0.73826,0.62111 1.31834,1.37111 1.74023,2.25 0.42186,0.87892 0.63279,1.85744 0.63281,2.93555 -2e-5,1.28907 -0.31349,2.50782 -0.94043,3.65625 -0.62697,1.14845 -1.49708,2.27344 -2.61035,3.375 -1.11329,1.10157 -2.43165,2.19727 -3.95508,3.2871 -1.52344,1.08985 -3.17579,2.22071 -4.95703,3.39258 l 10.23047,0 0.68555,-3.16406 2.30273,0 0,7.04883 z"
                 style=""
                 id="path10944" />
            </g>
          </g>
        </g>
        <g
           style="font-size:36px;font-style:oblique;font-variant:normal;font-weight:normal;font-stretch:normal;text-align:start;line-height:125%;letter-spacing:0px;word-spacing:0px;writing-mode:lr-tb;text-anchor:start;fill:#000000;fill-opacity:1;stroke:none;font-family:Charis SIL;-inkscape-font-specification:Charis SIL Oblique"
           id="text3999">
          <path
             d="m 250.14928,369.19476 -8.64844,0 0.47461,-2.44336 8.64844,0 z"
             style=""
             id="path10947" />
          <path
             d="m 259.16685,361.56586 -2.26757,11.30273 c -0.0703,0.31641 -0.0586,0.60059 0.0352,0.85254 0.0937,0.25196 0.24316,0.46289 0.44825,0.63281 0.20507,0.16993 0.4453,0.30176 0.7207,0.39551 0.27538,0.0937 0.56542,0.14063 0.87012,0.14063 0.33983,0 0.69139,-0.0322 1.05468,-0.0967 0.36328,-0.0645 0.71191,-0.14356 1.0459,-0.23731 0.33398,-0.0937 0.64452,-0.19043 0.93164,-0.29004 0.2871,-0.0996 0.52441,-0.18457 0.71192,-0.25488 l 0,1.44141 c -0.15236,0.0703 -0.44533,0.19336 -0.87891,0.36914 -0.4336,0.17578 -0.93165,0.35742 -1.49414,0.54492 -0.56251,0.1875 -1.1543,0.35449 -1.77539,0.50097 -0.6211,0.14649 -1.18946,0.21973 -1.70508,0.21973 -0.65625,0 -1.20118,-0.0791 -1.63477,-0.2373 -0.43359,-0.15821 -0.77929,-0.375 -1.0371,-0.65039 -0.25782,-0.27539 -0.44239,-0.60352 -0.55372,-0.98438 -0.11133,-0.38086 -0.16699,-0.79394 -0.16699,-1.23926 0,-0.23437 0.009,-0.4746 0.0264,-0.7207 0.0176,-0.24609 0.0557,-0.49804 0.11426,-0.75586 l 2.19726,-10.93359 -2.26758,0.21093 0,-1.17773 2.70704,-1.19531 1.75781,-3.60352 2.19726,0 -0.7207,4.11328 4.97461,0 0,1.65235 z"
             style=""
             id="path10949" />
          <path
             d="m 272.82959,379.04899 c -0.0457,-0.46465 -0.0952,-0.92549 -0.14853,-1.38254 -0.0533,-0.45703 -0.1276,-0.89502 -0.22281,-1.31398 -0.0952,-0.41894 -0.2171,-0.80743 -0.36563,-1.16545 -0.14854,-0.358 -0.33707,-0.6684 -0.56558,-0.93121 -0.22853,-0.26279 -0.50466,-0.46845 -0.82838,-0.617 -0.32375,-0.14853 -0.70651,-0.2228 -1.14831,-0.22281 -0.57892,1e-5 -1.0988,0.11237 -1.55964,0.33707 -0.46085,0.22472 -0.85124,0.54084 -1.17116,0.94835 -0.31993,0.40754 -0.56559,0.90075 -0.73697,1.47966 -0.1714,0.57892 -0.25709,1.22258 -0.25709,1.93099 0,0.63985 0.0762,1.22829 0.22852,1.7653 0.15234,0.53703 0.37324,0.99978 0.66271,1.38826 0.28945,0.38848 0.64365,0.69317 1.06261,0.91407 0.41894,0.2209 0.89883,0.33135 1.43967,0.33135 0.45703,0 0.86836,-0.0933 1.234,-0.27993 0.36562,-0.18662 0.69507,-0.43609 0.98834,-0.7484 0.29326,-0.31231 0.55415,-0.67794 0.78268,-1.09689 0.22851,-0.41895 0.43037,-0.86456 0.60557,-1.33684 z m 4.62751,2.20521 c -0.12951,0.54083 -0.29328,1.02072 -0.49131,1.43967 -0.0838,0.18281 -0.17902,0.35992 -0.28565,0.5313 -0.10666,0.17139 -0.22473,0.32374 -0.35421,0.45704 -0.1295,0.1333 -0.27233,0.24185 -0.42847,0.32564 -0.15617,0.0838 -0.32184,0.12569 -0.49703,0.12569 -0.35802,0 -0.66271,-0.0609 -0.91407,-0.18282 -0.25139,-0.12188 -0.46467,-0.29326 -0.63986,-0.51417 -0.1752,-0.2209 -0.31993,-0.48941 -0.43418,-0.80552 -0.11427,-0.31612 -0.20949,-0.66842 -0.28565,-1.0569 -0.31232,0.37324 -0.65129,0.71602 -1.01691,1.02833 -0.36564,0.31231 -0.75983,0.58272 -1.18258,0.81124 -0.42277,0.22852 -0.8779,0.40562 -1.3654,0.53131 -0.48752,0.12568 -1.00549,0.18853 -1.55393,0.18853 -0.78459,0 -1.46062,-0.16949 -2.02811,-0.50846 -0.56749,-0.33897 -1.03405,-0.77696 -1.39968,-1.31398 -0.36563,-0.53702 -0.63414,-1.13878 -0.80552,-1.8053 -0.17139,-0.66651 -0.25709,-1.33112 -0.25709,-1.99383 0,-0.79219 0.11997,-1.56344 0.35992,-2.31375 0.23994,-0.7503 0.60557,-1.4149 1.09689,-1.99383 0.49131,-0.5789 1.1045,-1.04356 1.83958,-1.39396 0.73506,-0.35039 1.60153,-0.52558 2.5994,-0.5256 0.59414,2e-5 1.11783,0.0933 1.57107,0.27994 0.45322,0.18663 0.85122,0.43991 1.19401,0.75983 0.34276,0.31993 0.63984,0.69127 0.89122,1.11402 0.25136,0.42277 0.46845,0.8741 0.65128,1.35398 0.11425,-0.56367 0.21898,-1.08927 0.31421,-1.57678 0.0952,-0.4875 0.19233,-0.91787 0.29136,-1.29113 l 2.14808,0 c -0.0229,0.13712 -0.0514,0.28947 -0.0857,0.45703 -0.0343,0.1676 -0.0724,0.3447 -0.11426,0.53131 -0.0419,0.18663 -0.0876,0.37516 -0.13711,0.56559 -0.0495,0.19044 -0.0971,0.37325 -0.14283,0.54844 -0.11427,0.41896 -0.23615,0.84934 -0.36563,1.29113 -0.11427,0.50275 -0.259,0.99407 -0.43419,1.47395 -0.17521,0.47989 -0.37325,0.95217 -0.59414,1.41682 0.0914,0.42657 0.17518,0.82838 0.25137,1.20543 0.0762,0.37706 0.15614,0.70651 0.23994,0.98835 0.0838,0.28184 0.179,0.50274 0.28565,0.6627 0.10663,0.15997 0.23231,0.23995 0.37706,0.23995 0.12948,0 0.25516,-0.0552 0.37705,-0.16568 0.12187,-0.11045 0.22851,-0.23042 0.31993,-0.35992 0.10663,-0.15234 0.20946,-0.32754 0.3085,-0.52559 z"
             style="font-size:65.00091553%;font-style:normal;baseline-shift:sub;-inkscape-font-specification:Charis SIL"
             id="path10951" />
          <path
             d="m 279.38809,386.01882 -1.4968,0 9.96342,-17.87018 1.50822,0 z"
             style="font-size:65.00091553%;font-style:normal;baseline-shift:sub;-inkscape-font-specification:Charis SIL"
             id="path10953" />
          <path
             d="m 290.45982,383.84789 0,-1.56536 c 1.1883,-0.98262 2.28138,-1.88718 3.27925,-2.71366 0.99786,-0.82647 1.86052,-1.62248 2.58798,-2.38802 0.72744,-0.76553 1.29302,-1.51964 1.69675,-2.26234 0.40371,-0.74267 0.60556,-1.52535 0.60557,-2.34803 -10e-6,-0.56366 -0.0895,-1.0645 -0.26851,-1.50251 -0.17901,-0.43798 -0.41896,-0.80742 -0.71983,-1.10831 -0.30089,-0.30087 -0.6551,-0.52939 -1.06261,-0.68556 -0.40754,-0.15614 -0.83982,-0.23422 -1.29685,-0.23423 -0.27423,10e-6 -0.52369,0.0305 -0.7484,0.0914 -0.22471,0.061 -0.42086,0.12951 -0.58843,0.20567 -0.16759,0.0762 -0.30279,0.14474 -0.40562,0.20567 -0.10284,0.0609 -0.16949,0.0952 -0.19996,0.10283 l 0,2.59369 c -0.0838,0.0762 -0.18282,0.14474 -0.29707,0.20567 -0.099,0.0533 -0.22091,0.099 -0.36563,0.13711 -0.14473,0.0381 -0.3047,0.0571 -0.47989,0.0571 -0.18282,10e-6 -0.35802,-0.0285 -0.5256,-0.0857 -0.16758,-0.0571 -0.31802,-0.14281 -0.45132,-0.25708 -0.1333,-0.11425 -0.23804,-0.25707 -0.31421,-0.42847 -0.0762,-0.17138 -0.11426,-0.37514 -0.11426,-0.61129 0,-0.48749 0.13901,-0.94453 0.41704,-1.37111 0.27803,-0.42656 0.65318,-0.796 1.12546,-1.10832 0.47227,-0.31229 1.01881,-0.55795 1.63962,-0.73697 0.62081,-0.17899 1.27399,-0.2685 1.95955,-0.26851 0.76172,10e-6 1.46251,0.11046 2.10237,0.33135 0.63985,0.22092 1.1902,0.53132 1.65105,0.93121 0.46084,0.39993 0.82076,0.87982 1.07975,1.43967 0.25898,0.55989 0.38847,1.17879 0.38849,1.85672 -2e-5,0.54845 -0.10475,1.08928 -0.31422,1.62248 -0.20948,0.53322 -0.50275,1.06072 -0.87979,1.5825 -0.37707,0.52179 -0.82268,1.04167 -1.33684,1.55964 -0.51418,0.51798 -1.07405,1.03976 -1.67961,1.56535 -0.60559,0.5256 -1.24925,1.055 -1.93099,1.58821 -0.68175,0.53321 -1.37302,1.07785 -2.07381,1.63391 l 6.93555,0 0.41133,-2.01097 1.15402,0 0,3.97623 z"
             style="font-size:65.00091553%;font-style:normal;baseline-shift:sub;-inkscape-font-specification:Charis SIL"
             id="path10955" />
        </g>
        <g
           style="font-size:36px;font-style:normal;font-variant:normal;font-weight:normal;font-stretch:normal;text-align:start;line-height:125%;letter-spacing:0px;word-spacing:0px;writing-mode:lr-tb;text-anchor:start;fill:#000000;fill-opacity:1;stroke:none;font-family:Charis SIL;-inkscape-font-specification:Charis SIL"
           id="text4005">
          <path
             d="m 379.88113,370.2229 c -10e-6,-0.90233 -0.0322,-1.79588 -0.0967,-2.68066 -0.0645,-0.88475 -0.17286,-1.73143 -0.32519,-2.54004 -0.15236,-0.80858 -0.35158,-1.55858 -0.59766,-2.25 -0.2461,-0.69139 -0.55079,-1.28904 -0.91406,-1.79297 -0.36329,-0.50389 -0.79103,-0.89939 -1.2832,-1.18652 -0.4922,-0.28709 -1.0547,-0.43065 -1.6875,-0.43067 -0.63282,2e-5 -1.19532,0.14358 -1.6875,0.43067 -0.4922,0.28713 -0.917,0.68263 -1.27442,1.18652 -0.35743,0.50393 -0.65918,1.10158 -0.90527,1.79297 -0.2461,0.69142 -0.44532,1.44142 -0.59766,2.25 -0.15235,0.80861 -0.26074,1.65529 -0.32519,2.54004 -0.0645,0.88478 -0.0967,1.77833 -0.0967,2.68066 -1e-5,0.90236 0.0322,1.79591 0.0967,2.68066 0.0645,0.88478 0.17284,1.72853 0.32519,2.53125 0.15234,0.80274 0.35156,1.54688 0.59766,2.23243 0.24609,0.68555 0.54784,1.27734 0.90527,1.77539 0.35742,0.49805 0.78222,0.89062 1.27442,1.17773 0.49218,0.28711 1.05468,0.43067 1.6875,0.43067 0.6328,0 1.1953,-0.14356 1.6875,-0.43067 0.49217,-0.28711 0.91991,-0.67968 1.2832,-1.17773 0.36327,-0.49805 0.66796,-1.08984 0.91406,-1.77539 0.24608,-0.68555 0.4453,-1.42969 0.59766,-2.23243 0.15233,-0.80272 0.26073,-1.64647 0.32519,-2.53125 0.0644,-0.88475 0.0967,-1.7783 0.0967,-2.68066 z m 3.81446,0 c -2e-5,1.72267 -0.17873,3.34864 -0.53614,4.87793 -0.35744,1.5293 -0.8965,2.86817 -1.61718,4.0166 -0.72072,1.14844 -1.62892,2.05957 -2.72461,2.7334 -1.09572,0.67383 -2.37599,1.01074 -3.84082,1.01074 -1.46486,0 -2.73927,-0.33691 -3.82325,-1.01074 -1.08398,-0.67383 -1.98633,-1.58496 -2.70703,-2.7334 -0.7207,-1.14843 -1.25683,-2.4873 -1.60839,-4.0166 -0.35157,-1.52929 -0.52735,-3.15526 -0.52735,-4.87793 0,-1.14842 0.0791,-2.25877 0.23731,-3.33105 0.1582,-1.07225 0.3955,-2.07714 0.71191,-3.01465 0.3164,-0.93748 0.71191,-1.79295 1.18652,-2.56641 0.47461,-0.77341 1.03418,-1.43845 1.67871,-1.99512 0.64453,-0.55661 1.37109,-0.99021 2.17969,-1.30078 0.80859,-0.31052 1.69921,-0.46579 2.67188,-0.46582 0.97264,3e-5 1.8662,0.1553 2.68066,0.46582 0.81444,0.31057 1.54393,0.74417 2.18848,1.30078 0.64451,0.55667 1.20701,1.22171 1.6875,1.99512 0.48045,0.77346 0.88182,1.62893 1.2041,2.56641 0.32225,0.93751 0.56248,1.9424 0.7207,3.01465 0.15819,1.07228 0.23729,2.18263 0.23731,3.33105 z"
             style=""
             id="path10958" />
        </g>
        <g
           style="font-size:36px;font-style:oblique;font-variant:normal;font-weight:normal;font-stretch:normal;text-align:start;line-height:125%;letter-spacing:0px;word-spacing:0px;writing-mode:lr-tb;text-anchor:start;fill:#000000;fill-opacity:1;stroke:none;font-family:Charis SIL;-inkscape-font-specification:Charis SIL Oblique"
           id="text4009">
          <path
             d="m 455.13452,361.56586 -2.26758,11.30273 c -0.0703,0.31641 -0.0586,0.60059 0.0352,0.85254 0.0937,0.25196 0.24316,0.46289 0.44824,0.63281 0.20507,0.16993 0.44531,0.30176 0.7207,0.39551 0.27539,0.0937 0.56543,0.14063 0.87012,0.14063 0.33984,0 0.6914,-0.0322 1.05469,-0.0967 0.36327,-0.0645 0.7119,-0.14356 1.0459,-0.23731 0.33397,-0.0937 0.64452,-0.19043 0.93164,-0.29004 0.2871,-0.0996 0.5244,-0.18457 0.71191,-0.25488 l 0,1.44141 c -0.15235,0.0703 -0.44532,0.19336 -0.8789,0.36914 -0.43361,0.17578 -0.93165,0.35742 -1.49414,0.54492 -0.56251,0.1875 -1.15431,0.35449 -1.77539,0.50097 -0.6211,0.14649 -1.18946,0.21973 -1.70508,0.21973 -0.65626,0 -1.20118,-0.0791 -1.63477,-0.2373 -0.4336,-0.15821 -0.7793,-0.375 -1.03711,-0.65039 -0.25781,-0.27539 -0.44238,-0.60352 -0.55371,-0.98438 -0.11133,-0.38086 -0.16699,-0.79394 -0.16699,-1.23926 0,-0.23437 0.009,-0.4746 0.0264,-0.7207 0.0176,-0.24609 0.0557,-0.49804 0.11425,-0.75586 l 2.19727,-10.93359 -2.26758,0.21093 0,-1.17773 2.70703,-1.19531 1.75782,-3.60352 2.19726,0 -0.7207,4.11328 4.97461,0 0,1.65235 z"
             style=""
             id="path10961" />
          <path
             d="m 468.79726,379.04899 c -0.0457,-0.46465 -0.0952,-0.92549 -0.14854,-1.38254 -0.0533,-0.45703 -0.1276,-0.89502 -0.2228,-1.31398 -0.0952,-0.41894 -0.2171,-0.80743 -0.36563,-1.16545 -0.14855,-0.358 -0.33708,-0.6684 -0.56559,-0.93121 -0.22852,-0.26279 -0.50465,-0.46845 -0.82838,-0.617 -0.32374,-0.14853 -0.70651,-0.2228 -1.1483,-0.22281 -0.57892,1e-5 -1.0988,0.11237 -1.55964,0.33707 -0.46086,0.22472 -0.85124,0.54084 -1.17116,0.94835 -0.31993,0.40754 -0.56559,0.90075 -0.73698,1.47966 -0.17139,0.57892 -0.25708,1.22258 -0.25708,1.93099 0,0.63985 0.0762,1.22829 0.22852,1.7653 0.15234,0.53703 0.37324,0.99978 0.6627,1.38826 0.28946,0.38848 0.64366,0.69317 1.06262,0.91407 0.41894,0.2209 0.89883,0.33135 1.43966,0.33135 0.45703,0 0.86837,-0.0933 1.23401,-0.27993 0.36562,-0.18662 0.69507,-0.43609 0.98834,-0.7484 0.29326,-0.31231 0.55415,-0.67794 0.78268,-1.09689 0.22851,-0.41895 0.43036,-0.86456 0.60557,-1.33684 z m 4.62751,2.20521 c -0.12951,0.54083 -0.29328,1.02072 -0.49132,1.43967 -0.0838,0.18281 -0.17902,0.35992 -0.28565,0.5313 -0.10665,0.17139 -0.22472,0.32374 -0.3542,0.45704 -0.12951,0.1333 -0.27233,0.24185 -0.42847,0.32564 -0.15617,0.0838 -0.32185,0.12569 -0.49703,0.12569 -0.35803,0 -0.66272,-0.0609 -0.91408,-0.18282 -0.25138,-0.12188 -0.46466,-0.29326 -0.63985,-0.51417 -0.17521,-0.2209 -0.31994,-0.48941 -0.43419,-0.80552 -0.11427,-0.31612 -0.20948,-0.66842 -0.28564,-1.0569 -0.31232,0.37324 -0.65129,0.71602 -1.01691,1.02833 -0.36564,0.31231 -0.75984,0.58272 -1.18259,0.81124 -0.42277,0.22852 -0.8779,0.40562 -1.3654,0.53131 -0.48751,0.12568 -1.00549,0.18853 -1.55393,0.18853 -0.78458,0 -1.46062,-0.16949 -2.0281,-0.50846 -0.56749,-0.33897 -1.03405,-0.77696 -1.39968,-1.31398 -0.36563,-0.53702 -0.63414,-1.13878 -0.80553,-1.8053 -0.17139,-0.66651 -0.25708,-1.33112 -0.25708,-1.99383 0,-0.79219 0.11997,-1.56344 0.35992,-2.31375 0.23994,-0.7503 0.60557,-1.4149 1.09689,-1.99383 0.49131,-0.5789 1.1045,-1.04356 1.83957,-1.39396 0.73507,-0.35039 1.60153,-0.52558 2.5994,-0.5256 0.59415,2e-5 1.11784,0.0933 1.57107,0.27994 0.45322,0.18663 0.85123,0.43991 1.19401,0.75983 0.34277,0.31993 0.63985,0.69127 0.89123,1.11402 0.25136,0.42277 0.46845,0.8741 0.65128,1.35398 0.11424,-0.56367 0.21898,-1.08927 0.31421,-1.57678 0.0952,-0.4875 0.19232,-0.91787 0.29136,-1.29113 l 2.14808,0 c -0.0229,0.13712 -0.0514,0.28947 -0.0857,0.45703 -0.0343,0.1676 -0.0724,0.3447 -0.11426,0.53131 -0.0419,0.18663 -0.0876,0.37516 -0.13711,0.56559 -0.0495,0.19044 -0.0971,0.37325 -0.14282,0.54844 -0.11428,0.41896 -0.23615,0.84934 -0.36563,1.29113 -0.11427,0.50275 -0.259,0.99407 -0.43419,1.47395 -0.17521,0.47989 -0.37326,0.95217 -0.59415,1.41682 0.0914,0.42657 0.17519,0.82838 0.25137,1.20543 0.0762,0.37706 0.15615,0.70651 0.23995,0.98835 0.0838,0.28184 0.17899,0.50274 0.28565,0.6627 0.10663,0.15997 0.23231,0.23995 0.37705,0.23995 0.12948,0 0.25517,-0.0552 0.37706,-0.16568 0.12186,-0.11045 0.2285,-0.23042 0.31993,-0.35992 0.10662,-0.15234 0.20946,-0.32754 0.3085,-0.52559 z"
             style="font-size:65.00091553%;font-style:normal;baseline-shift:sub;-inkscape-font-specification:Charis SIL"
             id="path10963" />
          <path
             d="m 475.35575,386.01882 -1.4968,0 9.96343,-17.87018 1.50822,0 z"
             style="font-size:65.00091553%;font-style:normal;baseline-shift:sub;-inkscape-font-specification:Charis SIL"
             id="path10965" />
          <path
             d="m 486.42749,383.84789 0,-1.56536 c 1.1883,-0.98262 2.28138,-1.88718 3.27925,-2.71366 0.99786,-0.82647 1.86051,-1.62248 2.58797,-2.38802 0.72745,-0.76553 1.29303,-1.51964 1.69675,-2.26234 0.40371,-0.74267 0.60557,-1.52535 0.60558,-2.34803 -10e-6,-0.56366 -0.0895,-1.0645 -0.26851,-1.50251 -0.17902,-0.43798 -0.41896,-0.80742 -0.71983,-1.10831 -0.3009,-0.30087 -0.6551,-0.52939 -1.06262,-0.68556 -0.40753,-0.15614 -0.83981,-0.23422 -1.29684,-0.23423 -0.27423,10e-6 -0.5237,0.0305 -0.7484,0.0914 -0.22472,0.061 -0.42086,0.12951 -0.58844,0.20567 -0.16758,0.0762 -0.30279,0.14474 -0.40562,0.20567 -0.10283,0.0609 -0.16949,0.0952 -0.19995,0.10283 l 0,2.59369 c -0.0838,0.0762 -0.18282,0.14474 -0.29708,0.20567 -0.099,0.0533 -0.2209,0.099 -0.36563,0.13711 -0.14473,0.0381 -0.30469,0.0571 -0.47989,0.0571 -0.18281,10e-6 -0.35801,-0.0285 -0.52559,-0.0857 -0.16758,-0.0571 -0.31802,-0.14281 -0.45132,-0.25708 -0.13331,-0.11425 -0.23805,-0.25707 -0.31422,-0.42847 -0.0762,-0.17138 -0.11426,-0.37514 -0.11426,-0.61129 0,-0.48749 0.13902,-0.94453 0.41705,-1.37111 0.27803,-0.42656 0.65318,-0.796 1.12546,-1.10832 0.47226,-0.31229 1.0188,-0.55795 1.63962,-0.73697 0.6208,-0.17899 1.27399,-0.2685 1.95955,-0.26851 0.76172,10e-6 1.46251,0.11046 2.10237,0.33135 0.63984,0.22092 1.19019,0.53132 1.65105,0.93121 0.46084,0.39993 0.82075,0.87982 1.07975,1.43967 0.25898,0.55989 0.38847,1.17879 0.38848,1.85672 -10e-6,0.54845 -0.10475,1.08928 -0.31421,1.62248 -0.20949,0.53322 -0.50275,1.06072 -0.8798,1.5825 -0.37706,0.52179 -0.82268,1.04167 -1.33683,1.55964 -0.51418,0.51798 -1.07405,1.03976 -1.67962,1.56535 -0.60558,0.5256 -1.24924,1.055 -1.93098,1.58821 -0.68175,0.53321 -1.37302,1.07785 -2.07381,1.63391 l 6.93555,0 0.41133,-2.01097 1.15402,0 0,3.97623 z"
             style="font-size:65.00091553%;font-style:normal;baseline-shift:sub;-inkscape-font-specification:Charis SIL"
             id="path10967" />
        </g>
      </g>
    </g>
  </g>
</svg>
